<svg width="31" height="31" viewBox="0 0 31 31" fill="none" xmlns="http://www.w3.org/2000/svg">
    <path d="M28.535 10.3491L17.8736 1.12942C16.3506 -0.366014 13.871 -0.366016 12.4109 1.06765L1.62374 10.411C0.578974 11.4367 0 12.8086 0 14.2669V26.6134C0 28.6649 1.69929 30.3334 3.78868 30.3334H26.4455C28.5224 30.3334 30.2217 28.6649 30.2217 26.6134V14.2669C30.2217 12.8086 29.6427 11.4367 28.535 10.3491ZM27.7043 26.6134C27.7043 27.3054 27.1378 27.8616 26.4455 27.8616H18.4653V19.9026C18.4653 19.1857 17.8863 18.6173 17.1562 18.6173H13.0655C12.3479 18.6173 11.7564 19.1857 11.7564 19.9026V27.8616H3.78868C3.08388 27.8616 2.51741 27.3054 2.51741 26.6134V14.2669C2.51741 13.4883 2.84474 12.7097 3.34817 12.203L14.1354 2.87207C14.3997 2.61258 14.7395 2.47663 15.092 2.47663C15.4696 2.47663 15.8472 2.62485 16.1492 2.92143L26.8106 12.1535C27.3896 12.722 27.7043 13.4759 27.7043 14.2669V26.6134Z" fill="white"/>
    </svg>
    