<svg width="121" height="106" viewBox="0 0 121 106" fill="none" xmlns="http://www.w3.org/2000/svg">
    <path d="M68.4126 10.7456C62.9382 14.0574 58.3499 18.8031 52.5503 21.5004C46.1651 24.4676 38.8845 24.6942 32.1089 26.6031C20.2432 29.9459 10.038 38.7639 4.9974 50.0308C-0.0432184 61.2978 0.173649 74.7994 5.57675 85.8957C7.15988 89.1485 9.20463 92.243 11.996 94.5429C17.9816 99.4781 26.427 100.055 34.1382 99.267C41.8494 98.4786 49.5451 96.5542 57.2563 97.3364C62.647 97.8858 67.8518 99.745 73.258 100.117C78.6363 100.487 84.0208 99.3632 89.1389 97.6654C98.7337 94.4809 107.855 89.0399 113.809 80.8581C119.764 72.6764 122.106 61.5026 118.292 52.1259C114.794 43.5221 106.835 37.5037 102.495 29.291C100.438 25.3988 99.2387 21.0907 97.0793 17.2543C91.4718 7.2879 77.7812 5.07797 68.4126 10.7456Z" fill="#808AFF"/>
    <path d="M41.0685 9.5757C40.1329 10.0382 39.2097 10.5596 38.4754 11.3014C37.7629 12.0215 37.261 12.9154 36.7746 13.8031C35.9133 15.3799 35.052 17.2173 35.6685 18.9027C36.0744 20.0108 37.072 20.824 38.1749 21.243C39.2778 21.6589 40.4768 21.7272 41.6541 21.7117C45.2231 21.6651 48.7797 20.883 52.042 19.4335C53.0241 18.9958 53.9907 18.493 54.8055 17.7916C55.6327 17.0808 56.2895 16.1807 56.7883 15.2092C57.6589 13.5145 58.009 11.3045 56.841 9.79607C56.0076 8.71904 54.6135 8.26898 53.2813 7.99895C48.9935 7.12988 45 7.62959 41.0685 9.5757Z" fill="#808AFF"/>
    <path d="M96.1096 99.1776C96.0538 99.1776 95.998 99.1528 95.964 99.1031C95.902 99.0224 95.9206 98.9076 96.0011 98.8455C102.405 94.0066 107.402 87.5196 110.448 80.089C110.971 78.8134 111.259 76.9169 110.661 75.7623C110.404 75.2657 110.001 74.9522 109.469 74.8343C108.759 74.6729 108.022 74.9615 107.384 75.2471C106.048 75.8368 104.753 76.5507 103.536 77.367C102.941 77.7643 102.352 78.1957 101.791 78.6427C101.723 78.6954 101.627 78.7916 101.513 78.9034C100.949 79.4528 100.49 79.8656 100.131 79.729C100.041 79.6949 99.9915 79.5955 100.019 79.5055C100.109 79.2013 100.218 78.9158 100.32 78.6396C100.555 78.0126 100.775 77.4166 100.788 76.6934C100.797 76.1192 100.67 75.7157 100.41 75.4954C100.174 75.2967 99.8118 75.2284 99.3347 75.2874C98.272 75.4209 97.2837 76.0261 96.6238 76.9449C96.5774 77.01 96.4906 77.038 96.4163 77.01C96.3388 76.9821 96.2892 76.9107 96.2924 76.8269C96.314 76.3458 96.4132 75.8523 96.5092 75.3774C96.5588 75.1322 96.6084 74.887 96.6455 74.6449C97.5409 68.9711 97.987 63.1824 97.9653 57.4404C97.9591 55.4322 97.5905 50.6833 94.3313 49.9073C92.3175 49.4293 90.3037 50.8788 89.0862 52.3935C86.1275 56.084 85.4304 61.1805 84.8696 65.2775C84.8572 65.3707 84.7767 65.4358 84.6837 65.4358C84.5908 65.4327 84.5133 65.3613 84.5041 65.2682C84.4018 64.1508 83.776 63.0769 82.7877 62.3258C81.7994 61.5747 80.5973 61.2612 79.4944 61.4629C78.3915 61.6678 77.3846 62.391 76.7278 63.4463C76.2848 64.1571 76.0493 64.9454 76.0369 65.7121C76.1732 66.0876 76.2259 66.4818 76.1794 66.8791C76.1701 66.966 76.0989 67.0343 76.0121 67.0405C75.9161 67.0467 75.8448 66.9909 75.8201 66.9071C75.7178 66.5408 75.6683 66.1621 75.6683 65.7773C75.501 65.3613 75.2097 64.9734 74.807 64.6537C73.8837 63.915 72.5732 63.6604 71.5478 64.0205C69.4844 64.7468 68.4094 67.0188 68.0903 68.9028C68.0903 68.9028 68.0903 68.9028 68.0903 68.9059C68.0748 69.0052 67.9818 69.0704 67.8796 69.058C67.7805 69.0425 67.7123 68.9463 67.7278 68.847C67.8982 67.7854 67.4149 66.7643 66.3956 66.038C65.0201 65.0572 63.1178 64.8834 61.7701 65.6128C59.1058 67.0591 58.1887 70.4144 57.8882 72.9751C57.8789 73.0682 57.7984 73.1365 57.7054 73.1365C57.7054 73.1365 57.7023 73.1365 57.6992 73.1365C57.6032 73.1334 57.5288 73.0589 57.5226 72.9657L56.9371 63.6946C56.7884 61.3202 56.1006 57.2665 53.1822 56.8103C50.4094 56.3757 48.5381 59.6689 48.0331 60.687C46.4624 63.8436 45.6538 67.3633 45.6848 70.8893C45.6972 71.0414 45.7003 71.1935 45.6941 71.3455C45.6879 71.4449 45.6011 71.5163 45.5082 71.5194C45.409 71.5194 45.3285 71.4387 45.3254 71.3424C45.3223 71.1966 45.3192 71.0538 45.3161 70.9079C45.2324 69.9736 44.7306 69.0487 43.9188 68.3721C42.9863 67.593 41.8059 67.2764 40.7619 67.5247C39.7178 67.773 38.8039 68.5831 38.3144 69.6974C37.828 70.8117 37.8497 72.0346 38.3763 72.972C38.4197 73.0464 38.4042 73.1427 38.3392 73.1985C38.2741 73.2544 38.1781 73.2606 38.1099 73.2109C37.0101 72.4195 36.6197 71.0258 36.2417 69.6757C35.8235 68.1858 35.4269 66.7767 34.1381 66.3018C32.809 65.8114 31.325 66.8077 30.7116 68.0151C30.0424 69.3312 30.0641 70.9079 30.0827 72.2984C30.0827 72.3915 30.0176 72.4691 29.9247 72.4815C29.8349 72.4971 29.7481 72.4381 29.7202 72.3512C28.1247 66.7984 24.7199 61.8043 20.1409 58.2939C18.1829 56.7916 15.4318 55.9102 14.019 57.5148C13.387 58.2349 13.2259 59.284 13.1453 60.3083C12.6744 66.3887 13.954 72.7236 16.7484 78.1429C16.7918 78.2236 16.767 78.323 16.6927 78.3757C16.6183 78.4285 16.5161 78.4192 16.4541 78.3509C15.6517 77.488 14.7409 76.5134 13.5822 76.0541C12.5474 75.6444 11.0665 75.7406 10.3632 76.7276C10.0039 77.2335 9.90163 77.8853 9.85826 78.3975C9.71574 79.9866 9.96979 81.6037 10.5956 83.0718C10.6328 83.1618 10.5956 83.2643 10.5089 83.3077C10.4221 83.3512 10.3168 83.3201 10.2672 83.2363C9.36256 81.6565 8.21006 79.9152 6.5185 78.9468C5.00352 78.0809 2.66755 77.9195 1.31987 79.3224C-1.11524 81.8613 1.73812 86.1074 3.0796 87.8145C6.10645 91.6695 9.53915 96.0428 14.3505 98.1658C14.4435 98.2061 14.4837 98.3148 14.4435 98.4079C14.4032 98.501 14.2947 98.5445 14.2018 98.501C9.30679 96.3407 5.84621 91.9302 2.79147 88.0411C1.39113 86.2564 -1.58305 81.8148 1.05343 79.0648C2.53123 77.5253 5.06239 77.6898 6.69819 78.624C7.97461 79.3534 8.95051 80.4925 9.74363 81.6813C9.47719 80.6012 9.38734 79.4745 9.48958 78.3633C9.53915 77.8077 9.65068 77.0938 10.0627 76.5134C10.8837 75.3619 12.5226 75.2377 13.7154 75.7126C14.5612 76.0478 15.2706 76.6283 15.8965 77.2459C13.4056 71.9601 12.3274 66.1218 12.7798 60.2773C12.8634 59.1878 13.04 58.0704 13.7433 57.2696C15.3109 55.4849 18.2727 56.3975 20.3639 57.999C24.6889 61.3139 27.976 65.9262 29.714 71.091C29.7388 69.9954 29.8689 68.8594 30.3832 67.8444C31.0679 66.5005 32.744 65.3955 34.262 65.9542C35.7305 66.4942 36.1674 68.0586 36.5949 69.5732C36.8738 70.5634 37.1588 71.5783 37.7257 72.3201C37.4965 71.448 37.5801 70.4609 37.9798 69.5453C38.5126 68.3255 39.5226 67.4347 40.6782 67.1616C41.8338 66.8884 43.135 67.233 44.1543 68.0834C44.6748 68.5179 45.0775 69.0456 45.344 69.6167C45.4927 66.4632 46.2982 63.3501 47.7047 60.5194C48.2407 59.4454 50.2204 55.9753 53.238 56.444C56.4073 56.9375 57.1447 61.1805 57.3027 63.6666L57.786 71.3114C58.2755 69.0021 59.335 66.5098 61.5936 65.2837C63.059 64.4892 65.1192 64.6754 66.6063 65.7307C67.3343 66.249 67.8176 66.9071 68.019 67.6334C68.5519 65.9666 69.6424 64.2936 71.4238 63.6698C72.5794 63.2632 73.9984 63.5363 75.0331 64.3619C75.3089 64.5823 75.5412 64.8306 75.7209 65.0975C75.8201 64.4612 76.0524 63.828 76.4149 63.2445C77.1244 62.0992 78.2242 61.317 79.4262 61.0936C80.6283 60.8701 81.9357 61.2084 83.0077 62.0247C83.776 62.6082 84.343 63.3749 84.6435 64.2129C85.198 60.2648 86.0159 55.6215 88.8011 52.1545C89.4238 51.3755 91.6731 48.8862 94.4149 49.5411C95.8679 49.8856 98.3123 51.3724 98.3309 57.431C98.3495 63.1918 97.9034 68.999 97.0049 74.6915C96.9646 74.9367 96.9151 75.1881 96.8655 75.4395C96.8128 75.7033 96.7571 75.9734 96.7168 76.2403C97.4108 75.5078 98.3185 75.0298 99.2851 74.9087C99.8707 74.8343 100.326 74.9336 100.642 75.2005C100.995 75.4985 101.163 75.9858 101.15 76.6872C101.138 77.4756 100.905 78.0964 100.658 78.7544C100.589 78.9344 100.521 79.1175 100.456 79.3069C100.713 79.1517 101.098 78.7761 101.249 78.6271C101.373 78.5061 101.482 78.4006 101.553 78.3416C102.123 77.8853 102.718 77.4508 103.322 77.0473C104.558 76.2186 105.872 75.4954 107.226 74.8963C107.969 74.5673 108.762 74.288 109.54 74.4618C110.184 74.6077 110.668 74.9832 110.977 75.5792C111.634 76.8424 111.352 78.8196 110.779 80.2132C107.709 87.709 102.671 94.2487 96.2118 99.1249C96.187 99.1652 96.1467 99.1776 96.1096 99.1776Z" fill="#8E97FD"/>
    <path d="M81.2133 99.602C81.1451 99.6052 81.0801 99.5586 81.0646 99.4872C80.2498 96.0388 79.6921 92.5005 79.4071 88.9683C79.3296 88.0092 79.2553 86.8763 79.2956 85.7341C79.4133 82.354 80.5038 78.977 82.4525 75.9632C84.2556 73.1729 86.8147 70.7022 89.8477 68.812C89.9159 68.7685 90.0088 68.7902 90.0522 68.8585C90.0956 68.9268 90.0739 69.0199 90.0057 69.0634C87.0067 70.9288 84.4818 73.3684 82.7035 76.1215C80.7857 79.0888 79.7107 82.4161 79.5961 85.7403C79.5558 86.867 79.6301 87.9906 79.7076 88.9404C79.9926 92.457 80.5472 95.983 81.3558 99.4158C81.3744 99.4965 81.3248 99.5741 81.2474 99.5927C81.2319 99.5989 81.2226 99.602 81.2133 99.602Z" fill="#565D70"/>
    <path d="M90.3534 67.8436C90.4959 67.7164 90.6663 67.6202 90.8398 67.5395C91.3789 67.2818 92.0047 67.1236 92.5716 67.3098C92.6243 67.3253 92.6739 67.347 92.7141 67.3874C92.7513 67.4246 92.7699 67.4774 92.7792 67.527C92.8133 67.7226 92.7079 67.9119 92.5933 68.0702C92.2432 68.5451 91.7289 68.8834 91.1682 69.0448C90.846 69.1379 89.6966 69.3738 89.8329 68.7655C89.9042 68.4272 90.0931 68.0733 90.3534 67.8436Z" fill="#565D70"/>
    <path d="M87.8004 71.2799C88.4758 71.2147 89.1574 71.2582 89.8328 71.311C90.2634 71.3451 90.6941 71.3854 91.1247 71.4289C91.2114 71.4382 91.3168 71.4661 91.3323 71.55C91.3509 71.6431 91.2393 71.7051 91.1526 71.7455C90.5515 72.0155 90.1829 72.6332 89.6345 72.9994C89.2379 73.2633 88.7639 73.3843 88.2899 73.4495C87.8934 73.5023 87.4906 73.5178 87.091 73.4961C86.7657 73.4774 86.428 73.4278 86.1615 73.2415C85.892 73.0522 85.7278 72.7232 85.7216 72.3942C85.7154 71.9845 86.0345 71.7393 86.3846 71.6058C86.8369 71.4289 87.3233 71.3234 87.8004 71.2799Z" fill="#565D70"/>
    <path d="M83.6147 76.9444C84.2901 76.8792 84.9716 76.9227 85.647 76.9755C86.0777 77.0096 86.5083 77.0499 86.9389 77.0934C87.0257 77.1027 87.131 77.1275 87.1465 77.2145C87.1651 77.3076 87.0536 77.3696 86.9668 77.41C86.3658 77.68 85.9971 78.2977 85.4487 78.6639C85.0522 78.9278 84.5782 79.0488 84.1042 79.114C83.7076 79.1668 83.3049 79.1823 82.9052 79.1606C82.5799 79.1419 82.2422 79.0923 81.9758 78.906C81.7062 78.7167 81.5421 78.3877 81.5359 78.0587C81.5297 77.649 81.8488 77.4038 82.1988 77.2703C82.6512 77.0965 83.1345 76.991 83.6147 76.9444Z" fill="#565D70"/>
    <path d="M81.381 82.2489C82.0007 81.9758 82.6637 81.802 83.3205 81.6406C83.7418 81.5382 84.1631 81.4388 84.5845 81.3457C84.6681 81.3271 84.7766 81.3209 84.8199 81.3954C84.8664 81.4792 84.7828 81.5723 84.7115 81.6344C84.2251 82.0813 84.0702 82.7828 83.6643 83.3011C83.37 83.6767 82.958 83.9405 82.5304 84.1485C82.1711 84.3223 81.7931 84.4651 81.4058 84.5675C81.0929 84.6513 80.7552 84.7103 80.4423 84.6172C80.1263 84.5209 79.8691 84.2633 79.7576 83.9498C79.6213 83.565 79.8475 83.2298 80.1387 82.9939C80.5136 82.6928 80.9411 82.4414 81.381 82.2489Z" fill="#565D70"/>
    <path d="M81.1115 88.7606C81.7032 88.4254 82.3414 88.1895 82.9827 87.9629C83.3917 87.8201 83.8006 87.6804 84.2127 87.547C84.2932 87.519 84.4017 87.5004 84.4512 87.5718C84.5039 87.6494 84.4295 87.7518 84.3676 87.8232C83.9277 88.3136 83.8409 89.0306 83.4877 89.5862C83.2337 89.9897 82.8464 90.2939 82.4406 90.5422C82.0998 90.7532 81.7373 90.9301 81.3624 91.0698C81.0588 91.1847 80.7304 91.2778 80.4113 91.2126C80.0891 91.1474 79.8041 90.9177 79.6647 90.6167C79.4912 90.2442 79.6832 89.8904 79.9497 89.6265C80.2936 89.2882 80.6932 88.9965 81.1115 88.7606Z" fill="#565D70"/>
    <path d="M84.461 72.0585C84.461 71.6705 84.4486 71.2794 84.3804 70.8976C84.3278 70.5935 84.241 70.2924 84.1512 69.9975C83.863 69.0353 83.5315 68.039 82.8221 67.3282C82.8004 67.3065 82.7756 67.2817 82.7446 67.2724C82.6672 67.2444 82.5835 67.3065 82.5526 67.3841C82.5216 67.4586 82.5278 67.5455 82.5247 67.6262C82.5185 67.8062 82.4627 67.98 82.4069 68.1507C82.2613 68.6039 82.1157 69.0602 81.9701 69.5133C81.7501 70.1962 81.5302 70.8883 81.4806 71.6053C81.431 72.3223 81.5674 73.0765 82.0042 73.6446C82.1498 73.8339 82.3264 74.0015 82.5154 74.1474C82.6951 74.287 82.8933 74.4143 83.1133 74.464C83.4107 74.5322 83.736 74.4484 83.9653 74.2467C84.2286 74.017 84.3216 73.6414 84.3587 73.3062C84.4114 72.8903 84.4579 72.4775 84.461 72.0585Z" fill="#565D70"/>
    <path d="M80.8233 76.3918C80.6622 76.038 80.4887 75.6873 80.2688 75.3676C80.0922 75.113 79.8908 74.8772 79.6863 74.6444C79.0264 73.887 78.3108 73.1204 77.3721 72.7696C77.3411 72.7572 77.3101 72.7479 77.2791 72.751C77.1986 72.7572 77.1459 72.8503 77.149 72.931C77.1521 73.0117 77.1924 73.0893 77.2234 73.1638C77.2915 73.3314 77.3132 73.5115 77.3349 73.6884C77.3906 74.1633 77.4464 74.6351 77.5022 75.1099C77.5858 75.8238 77.6726 76.5439 77.9235 77.2143C78.1745 77.8879 78.6144 78.5149 79.2464 78.8532C79.4571 78.9649 79.6863 79.0425 79.9218 79.0984C80.1417 79.1511 80.3741 79.1853 80.5972 79.1387C80.8946 79.0766 81.1579 78.8656 81.2849 78.5862C81.4306 78.2665 81.3562 77.8879 81.254 77.5682C81.1239 77.1678 80.9937 76.7705 80.8233 76.3918Z" fill="#565D70"/>
    <path d="M77.7005 82.6861C77.3504 82.5185 76.991 82.3664 76.6162 82.264C76.3188 82.1833 76.012 82.1336 75.7053 82.0871C74.7139 81.935 73.673 81.8108 72.7281 82.1492C72.6971 82.1616 72.6661 82.1709 72.6444 82.1957C72.5855 82.2547 72.6072 82.3571 72.6599 82.4192C72.7157 82.4813 72.7931 82.5092 72.8675 82.5496C73.0255 82.6334 73.1587 82.7575 73.2888 82.8786C73.6358 83.2045 73.9828 83.5304 74.3329 83.8563C74.8565 84.3467 75.3862 84.8433 76.012 85.194C76.6379 85.5448 77.3752 85.7434 78.0754 85.5913C78.3108 85.5417 78.5339 85.4516 78.7477 85.343C78.9521 85.2406 79.1473 85.1164 79.2898 84.9364C79.4788 84.6974 79.5408 84.3653 79.4602 84.0704C79.3642 83.7321 79.0668 83.49 78.7818 83.31C78.4317 83.0896 78.0785 82.8661 77.7005 82.6861Z" fill="#565D70"/>
    <path d="M77.9234 89.1733C77.5733 89.0057 77.2139 88.8537 76.839 88.7512C76.5416 88.6705 76.2349 88.6209 75.9282 88.5743C74.9368 88.4222 73.8958 88.2981 72.9509 88.6364C72.9199 88.6488 72.8889 88.6581 72.8672 88.6829C72.8084 88.7419 72.8301 88.8443 72.8827 88.9064C72.9385 88.9685 73.016 88.9964 73.0903 89.0368C73.2483 89.1206 73.3815 89.2447 73.5117 89.3658C73.8586 89.6917 74.2056 90.0176 74.5557 90.3435C75.0793 90.8339 75.6091 91.3305 76.2349 91.6813C76.8607 92.032 77.5981 92.2306 78.2982 92.0786C78.5337 92.0289 78.7567 91.9389 78.9705 91.8302C79.175 91.7278 79.3702 91.6037 79.5127 91.4236C79.7017 91.1846 79.7636 90.8525 79.6831 90.5577C79.587 90.2194 79.2896 89.9772 79.0046 89.7972C78.6514 89.5737 78.2982 89.3534 77.9234 89.1733Z" fill="#565D70"/>
    <path d="M76.1922 84.9579C76.5051 83.5208 77.4965 81.8199 78.9403 82.093C79.9564 82.2855 80.5079 83.3873 80.8084 84.3806C81.4683 86.5471 81.6759 88.8532 81.4156 91.1035C81.4652 88.1424 82.2769 85.2 83.7547 82.6362C84.2256 81.8168 84.8886 80.9602 85.8273 80.8763C86.8156 80.7863 87.6862 81.6554 87.9558 82.6114C88.2253 83.5705 88.0425 84.5885 87.8566 85.5662C88.4174 79.8769 89.6628 73.5668 94.344 70.2985C95.289 69.6374 96.3888 69.1252 97.5413 69.1252C98.6938 69.1252 99.8958 69.7398 100.339 70.8075C100.581 71.3879 100.584 72.0366 100.54 72.6636C100.172 77.9153 96.8597 82.4655 93.3712 86.4074C94.2046 86.038 95.069 85.6625 95.9798 85.6501C96.8907 85.6376 97.8728 86.0846 98.2074 86.935C98.6194 87.9841 97.91 89.1574 97.027 89.8589C96.1471 90.5603 95.069 91.0166 94.3038 91.8453C95.9086 91.4697 98.0246 91.3083 98.7836 92.7765C99.1182 93.4283 99.047 94.2104 98.8952 94.9274C97.9812 99.1828 94.2604 102.681 89.9633 103.326C80.2074 104.785 74.386 93.2389 76.1922 84.9579Z" fill="#F2EDE4"/>
    <path d="M84.1108 101.489C84.1015 101.489 84.0922 101.489 84.0829 101.486C84.0272 101.47 83.9962 101.412 84.0117 101.359C84.0798 101.123 90.8492 77.7292 98.6131 70.9225C98.6564 70.8853 98.7215 70.8884 98.7587 70.9318C98.7959 70.9753 98.7928 71.0405 98.7494 71.0777C91.032 77.8472 84.2781 101.179 84.213 101.415C84.1976 101.461 84.1542 101.489 84.1108 101.489Z" fill="#D9C9AC"/>
    <path d="M84.7769 99.3011C84.7521 99.3011 84.7305 99.2948 84.7119 99.2762C77.4716 93.3634 78.274 84.8527 78.2802 84.7689C78.2864 84.713 78.3391 84.6696 78.3948 84.6758C78.4506 84.682 78.494 84.7317 78.4878 84.7906C78.4785 84.8744 77.6916 93.2765 84.842 99.1148C84.8854 99.1521 84.8947 99.2172 84.8575 99.2607C84.8358 99.2886 84.8048 99.3011 84.7769 99.3011Z" fill="#D9C9AC"/>
    <path d="M86.6605 93.6708C86.6203 93.6708 86.58 93.646 86.5645 93.6088C84.6313 89.0182 85.8179 82.4101 85.8302 82.3449C85.8395 82.2891 85.8922 82.2487 85.9511 82.2611C86.0068 82.2705 86.044 82.3263 86.0347 82.3822C86.0223 82.4474 84.8481 88.9934 86.7566 93.5281C86.7783 93.5808 86.7535 93.6429 86.7008 93.6646C86.6884 93.6677 86.676 93.6708 86.6605 93.6708Z" fill="#D9C9AC"/>
    <path d="M85.1823 100.424C84.7145 100.424 84.4418 100.4 84.4264 100.4C84.3706 100.393 84.3272 100.344 84.3334 100.285C84.3396 100.229 84.3892 100.182 84.448 100.192C84.5317 100.201 92.8594 100.927 97.0697 93.9281C97.1007 93.8785 97.1627 93.8629 97.2122 93.894C97.2618 93.925 97.2773 93.9871 97.2463 94.0368C93.7207 99.8968 87.3634 100.424 85.1823 100.424Z" fill="#D9C9AC"/>
    <path d="M87.8008 90.5731C87.745 90.5731 87.6986 90.5297 87.6955 90.4738C87.6924 90.4179 87.7388 90.3683 87.7946 90.3652C87.8442 90.3621 92.7856 90.1696 96.206 87.2086C96.2493 87.1713 96.3144 87.1744 96.3516 87.2179C96.3887 87.2613 96.3857 87.3265 96.3423 87.3638C92.8662 90.3745 87.8535 90.57 87.8039 90.5731C87.8008 90.5731 87.8008 90.5731 87.8008 90.5731Z" fill="#D9C9AC"/>
    <path d="M92.3885 80.0915C92.3358 80.0915 92.2894 80.0511 92.2832 79.9952C92.2801 79.958 92.0353 76.221 93.8013 73.1389C93.8291 73.0892 93.8942 73.0737 93.9438 73.1016C93.9933 73.1295 94.0119 73.1947 93.9809 73.2444C92.246 76.2675 92.4876 79.9456 92.4907 79.9828C92.4938 80.0387 92.4505 80.0914 92.3947 80.0946C92.3947 80.0914 92.3916 80.0915 92.3885 80.0915Z" fill="#D9C9AC"/>
    <path d="M94.7275 75.9786C94.6841 75.9786 94.6407 75.9507 94.6283 75.9072C94.6097 75.8514 94.6407 75.7924 94.6965 75.7769C94.7337 75.7645 98.3399 74.6223 99.3932 73.3466C99.4304 73.3031 99.4955 73.2969 99.5388 73.3342C99.5822 73.3714 99.5884 73.4366 99.5512 73.48C98.4576 74.8023 94.9072 75.929 94.7554 75.9755C94.7492 75.9755 94.7399 75.9786 94.7275 75.9786Z" fill="#D9C9AC"/>
    <path d="M91.0099 83.8342C90.7466 83.8342 90.5948 83.7907 90.5731 83.7845C90.5173 83.7659 90.4894 83.71 90.5049 83.6541C90.5235 83.5983 90.5793 83.5672 90.635 83.5858C90.6505 83.5889 92.1934 84.0266 94.4178 81.7577C94.4581 81.7173 94.5232 81.7142 94.5634 81.7577C94.6037 81.798 94.6037 81.8632 94.5634 81.9036C92.9245 83.5765 91.645 83.8342 91.0099 83.8342Z" fill="#D9C9AC"/>
    <path d="M85.4893 89.3438C85.071 89.3438 84.0673 89.1235 83.4228 87.1711C83.4043 87.1153 83.4352 87.0563 83.4879 87.0408C83.5437 87.0221 83.6025 87.0532 83.618 87.106C84.3709 89.3811 85.5822 89.1359 85.6318 89.1235C85.6876 89.1079 85.7433 89.1452 85.7557 89.2011C85.7681 89.2569 85.734 89.3128 85.6783 89.3252C85.669 89.3283 85.6008 89.3438 85.4893 89.3438Z" fill="#D9C9AC"/>
    <path d="M80.3217 93.835C80.3186 93.835 80.3186 93.835 80.3155 93.835C80.2443 93.8288 78.5279 93.6953 77.4529 91.4699C77.4281 91.4171 77.4498 91.355 77.5024 91.3302C77.552 91.3054 77.6171 91.3271 77.6418 91.3799C78.6642 93.4967 80.3124 93.6239 80.3279 93.627C80.3837 93.6302 80.4301 93.6798 80.424 93.7388C80.424 93.7916 80.3775 93.835 80.3217 93.835Z" fill="#D9C9AC"/>
    <path d="M82.1186 96.6097C82.0969 96.6097 82.0752 96.6035 82.0566 96.5879C82.0102 96.5538 82.004 96.4886 82.038 96.4421C82.0473 96.4297 83.0202 95.1074 82.2115 91.6373C82.1991 91.5815 82.2332 91.5256 82.289 91.5132C82.3448 91.5008 82.4005 91.5349 82.4129 91.5908C83.2463 95.1726 82.2425 96.5166 82.1991 96.5693C82.1775 96.5973 82.1496 96.6097 82.1186 96.6097Z" fill="#D9C9AC"/>
    <path d="M88.8202 100.008C88.8109 100.008 88.8016 100.008 88.7955 100.005C88.7397 99.9898 88.7056 99.9339 88.7211 99.878C88.7738 99.6732 90.044 94.8219 92.3955 93.7014C92.4481 93.6766 92.5101 93.6983 92.5349 93.751C92.5597 93.8038 92.538 93.8659 92.4853 93.8907C90.2237 94.9709 88.938 99.8811 88.9256 99.9308C88.9101 99.9773 88.8667 100.008 88.8202 100.008Z" fill="#D9C9AC"/>
    <path d="M93.9971 99.264C93.8267 99.264 93.6687 99.2361 93.5262 99.1771C92.9375 98.9412 92.8074 98.3174 92.8012 98.2894C92.7888 98.2335 92.826 98.1777 92.8818 98.1684C92.9406 98.1559 92.9933 98.1932 93.0057 98.2491C93.0057 98.2553 93.1203 98.7922 93.6067 98.9847C94.1117 99.1833 94.8615 98.9505 95.7785 98.3018C95.825 98.2677 95.89 98.2801 95.9241 98.3267C95.9582 98.3732 95.9458 98.4384 95.8993 98.4725C95.1496 98.9971 94.5145 99.264 93.9971 99.264Z" fill="#D9C9AC"/>
    <rect x="53.7255" y="31.257" width="5.86056" height="14.6514" rx="2.93028" fill="#FDFFFC"/>
    <rect x="43.9579" y="36.1339" width="5.86056" height="14.6514" rx="2.93028" transform="rotate(-41.7192 43.9579 36.1339)" fill="#FDFFFC"/>
    <rect x="64.7736" y="32.2335" width="5.86056" height="14.6514" rx="2.93028" transform="rotate(43.4252 64.7736 32.2335)" fill="#FDFFFC"/>
    <path d="M23.9698 69.2382C21.4263 69.2382 18.9137 67.9191 16.491 65.3088C16.2958 65.0977 16.3082 64.7687 16.5189 64.5732C16.7295 64.3776 17.0579 64.39 17.2531 64.6011C19.6201 67.1524 22.0397 68.3567 24.4376 68.1798C28.2049 67.9005 30.7175 64.2969 30.7423 64.2597C30.9065 64.0238 31.2287 63.9617 31.4641 64.1262C31.6996 64.2876 31.7616 64.6135 31.5974 64.8494C31.4827 65.0139 28.7719 68.903 24.512 69.2196C24.3323 69.2289 24.1495 69.2382 23.9698 69.2382Z" fill="#E9F2DE"/>
    <path d="M15.1469 66.361C15.0663 66.361 14.9858 66.3579 14.9052 66.3486C14.614 66.3144 14.3631 66.2244 14.1617 66.0816C13.5266 65.6254 13.4925 64.7563 13.7868 64.1697C13.9138 63.9121 14.2267 63.8065 14.4839 63.9369C14.741 64.0642 14.8433 64.3776 14.7162 64.6353C14.6078 64.8525 14.6326 65.1381 14.7689 65.2374C14.8247 65.2778 14.9114 65.3026 15.023 65.3181C15.3607 65.3554 15.7107 65.2436 15.9617 65.0139C16.2126 64.7842 16.3582 64.4459 16.3551 64.1076C16.352 63.999 16.3366 63.9059 16.3056 63.8345C16.2405 63.6824 16.0825 63.5582 15.8997 63.5179C15.7107 63.4775 15.4846 63.5241 15.3018 63.6451C15.0601 63.8003 14.7379 63.732 14.583 63.493C14.4281 63.2509 14.4963 62.9282 14.7348 62.773C15.15 62.5029 15.6519 62.4005 16.1135 62.4998C16.6247 62.6085 17.0646 62.9654 17.2629 63.431C17.3465 63.6265 17.3899 63.85 17.393 64.0921C17.4023 64.7253 17.1297 65.3585 16.6619 65.7868C16.2498 66.153 15.6983 66.361 15.1469 66.361Z" fill="#E9F2DE"/>
    <path d="M15.7602 68.707C15.5402 68.707 15.3358 68.5674 15.2645 68.3439C14.5891 66.2209 16.0948 64.8428 16.1599 64.7838C16.3736 64.5914 16.702 64.6131 16.8941 64.8272C17.0831 65.0414 17.0676 65.3673 16.8538 65.5597C16.8074 65.6032 15.7881 66.5592 16.2528 68.0273C16.3395 68.3004 16.1877 68.5953 15.9151 68.6822C15.8655 68.7008 15.8129 68.707 15.7602 68.707Z" fill="#E9F2DE"/>
    <path d="M14.412 68.9989C14.2106 68.9989 14.0185 68.881 13.9348 68.6854C13.3338 67.2887 14.3221 65.6375 14.3655 65.5692C14.5142 65.324 14.8333 65.2464 15.0811 65.3954C15.3259 65.5444 15.4034 65.8641 15.2546 66.1093C15.044 66.4569 14.57 67.5246 14.8922 68.2726C15.0068 68.5365 14.886 68.8437 14.6195 68.9555C14.5514 68.9865 14.4801 68.9989 14.412 68.9989Z" fill="#E9F2DE"/>
    <path d="M86.2302 49.9196C74.8633 33.0502 57.1142 45.8163 57.1142 45.8163C57.1142 45.8163 40.5672 31.52 27.7503 47.3155C14.9335 63.1078 36.0811 87.895 55.1872 89.2142C74.3366 89.599 97.5972 66.7921 86.2302 49.9196Z" fill="#93BFA8"/>
    <path d="M86.2297 49.9198C79.956 40.6083 71.7398 40.3258 65.6366 41.9429C70.3643 43.8518 83.8968 50.5747 81.8707 64.4489C80.3588 74.8126 69.1096 83.553 60.7385 88.7147C78.4534 85.3067 96.5123 65.1845 86.2297 49.9198Z" fill="#80B996"/>
    <path d="M57.1138 45.8197C57.1138 45.8197 48.0859 38.0228 38.2029 40.3104C48.2005 42.5389 53.8422 47.6354 53.8422 47.6354C55.2611 46.7446 57.1138 45.8197 57.1138 45.8197Z" fill="#80B996"/>
    <path d="M33.385 44.5285C31.4456 45.7638 29.8872 47.7161 29.4938 49.985C29.4411 50.283 29.4101 50.5965 29.5093 50.882C29.6704 51.3476 30.1568 51.6425 30.6463 51.7045C31.1358 51.7666 31.6253 51.6393 32.0931 51.4842C34.3981 50.7175 36.4738 49.2649 38.8625 48.8273C40.111 48.5976 41.4122 48.6535 42.6174 48.2562C43.8225 47.862 44.9657 46.8098 44.8852 45.5434C44.7458 43.3583 41.7375 42.7841 40.0119 42.5855C37.837 42.3371 35.1881 43.38 33.385 44.5285Z" fill="#66A986"/>
    <path d="M59.853 46.4805C59.7879 46.6978 59.7445 46.9337 59.8096 47.1509C59.9428 47.5886 60.454 47.781 60.9032 47.8586C62.0154 48.051 63.1803 47.9269 64.2244 47.5079C64.8812 47.244 65.5039 46.853 65.9438 46.2974C66.6843 45.36 66.8609 43.2153 65.3273 42.939C64.15 42.7249 62.316 43.6933 61.4175 44.3575C60.708 44.8851 60.1132 45.6145 59.853 46.4805Z" fill="#66A986"/>
    <path d="M56.547 47.0334C56.3735 47.3314 56.358 47.738 56.5749 48.0049C56.7607 48.2346 57.0736 48.3215 57.3649 48.3774C57.6623 48.4333 57.9845 48.4674 58.2509 48.3215C58.3934 48.2439 58.505 48.1229 58.601 47.9925C58.8613 47.6511 59.0471 47.1793 58.8489 46.7975C58.7249 46.5616 58.4771 46.4095 58.2168 46.3475C57.5786 46.1892 56.8909 46.4499 56.547 47.0334Z" fill="#66A986"/>
    <path d="M45.9948 56.6613C46.0754 57.0834 46.0939 57.4776 46.0816 57.8966C46.0599 58.3094 45.9979 58.7315 45.8399 59.1444C45.6881 59.5572 45.4186 59.9638 45.0282 60.2431C44.644 60.5287 44.1762 60.659 43.7332 60.687C43.507 60.7025 43.2716 60.6808 43.0361 60.6249C42.8007 60.5628 42.5683 60.4511 42.3731 60.2959C41.9735 59.9824 41.7566 59.5416 41.642 59.1257C41.4158 58.2815 41.4499 57.4745 41.5862 56.6613C41.6172 56.4782 41.7907 56.354 41.9735 56.385C42.147 56.4161 42.2678 56.5744 42.2523 56.7482L42.2492 56.7699C42.2151 57.1175 42.2027 57.4993 42.2244 57.8563C42.2461 58.2163 42.2926 58.5732 42.3979 58.8929C42.5032 59.2095 42.655 59.4889 42.875 59.6503C42.9834 59.731 43.1043 59.79 43.2406 59.8241C43.38 59.852 43.5287 59.8675 43.6898 59.8551C44.012 59.8365 44.3187 59.7496 44.5542 59.5789C44.7989 59.4113 44.9755 59.1506 45.1057 58.8495C45.2358 58.5453 45.3039 58.1977 45.338 57.8438C45.3752 57.4931 45.369 57.1144 45.338 56.773L45.3349 56.7544C45.3163 56.5682 45.4526 56.4037 45.6385 56.3881C45.8089 56.3726 45.9638 56.4937 45.9948 56.6613Z" fill="#3F4553"/>
    <path d="M61.2622 56.7731C61.2312 57.1146 61.225 57.4932 61.2622 57.844C61.2932 58.1978 61.3644 58.5454 61.4945 58.8496C61.6247 59.1538 61.8012 59.4114 62.046 59.579C62.2846 59.7528 62.5882 59.8397 62.9104 59.8553C63.0684 59.8677 63.2202 59.8522 63.3596 59.8242C63.4959 59.7901 63.6167 59.7311 63.7252 59.6504C63.942 59.489 64.0969 59.2097 64.2023 58.8931C64.3076 58.5765 64.3541 58.2164 64.3758 57.8564C64.4006 57.4994 64.3851 57.1177 64.351 56.77L64.3479 56.7483C64.3293 56.5621 64.4656 56.3976 64.6515 56.3821C64.8281 56.3665 64.9861 56.4907 65.014 56.6614C65.1503 57.4746 65.1844 58.2785 64.9582 59.1259C64.8436 59.5418 64.6236 59.9825 64.2271 60.296C64.0319 60.4512 63.7995 60.5629 63.5641 60.625C63.3286 60.6809 63.0901 60.7026 62.867 60.6871C62.4271 60.6623 61.9593 60.5288 61.572 60.2432C61.1847 59.9639 60.9121 59.5573 60.7603 59.1445C60.6023 58.7317 60.5403 58.3095 60.5186 57.8967C60.5062 57.4777 60.5248 57.0835 60.6054 56.6614C60.6395 56.4783 60.8161 56.3572 60.9988 56.3914C61.1692 56.4224 61.287 56.5807 61.2715 56.7514L61.2622 56.7731Z" fill="#3F4553"/>
    <path d="M53.1331 62.6735C52.563 62.6735 52.0549 62.599 51.6305 62.4997C50.2952 62.1831 49.4742 61.5592 49.437 61.5313C49.2914 61.4164 49.2635 61.2054 49.3751 61.0595C49.4897 60.9136 49.7004 60.8857 49.846 60.9974C49.9668 61.0905 52.8574 63.2415 56.5751 60.9757C56.7331 60.8795 56.9407 60.9291 57.0367 61.0874C57.1327 61.2457 57.0832 61.4537 56.9252 61.5499C55.5186 62.4066 54.2112 62.6735 53.1331 62.6735Z" fill="#3F4553"/>
    <path d="M95.9829 72.5844C95.2424 72.5844 94.5113 72.513 93.7832 72.3733C87.4569 71.1473 83.9715 65.0669 83.8259 64.8093C83.6834 64.5579 83.7732 64.2413 84.0242 64.1016C84.2751 63.9619 84.5911 64.0488 84.7305 64.3002C84.7646 64.3592 88.1354 70.2255 93.9877 71.3553C97.6527 72.0629 101.532 70.7904 105.528 67.581C105.751 67.401 106.08 67.4382 106.259 67.6617C106.439 67.8852 106.402 68.2142 106.179 68.3942C102.706 71.1783 99.2854 72.5844 95.9829 72.5844Z" fill="#E9F2DE"/>
    <path d="M107.529 69.664C106.978 69.664 106.426 69.4561 106.017 69.0836C105.55 68.6584 105.274 68.0252 105.283 67.3889C105.286 67.1437 105.333 66.9233 105.413 66.7278C105.608 66.2622 106.048 65.9053 106.563 65.7966C107.024 65.7004 107.526 65.7997 107.941 66.0698C108.183 66.225 108.251 66.5478 108.093 66.7899C107.935 67.032 107.613 67.1002 107.374 66.942C107.192 66.824 106.965 66.7743 106.776 66.8147C106.594 66.8519 106.436 66.9761 106.371 67.1313C106.34 67.2027 106.324 67.2958 106.321 67.4044C106.315 67.7427 106.464 68.0811 106.714 68.3107C106.965 68.5404 107.319 68.6522 107.653 68.6149C107.765 68.6025 107.851 68.5746 107.907 68.5342C108.044 68.438 108.068 68.1493 107.96 67.9321C107.833 67.6745 107.935 67.361 108.192 67.2337C108.449 67.1034 108.762 67.2089 108.889 67.4665C109.181 68.0531 109.15 68.9222 108.514 69.3785C108.313 69.5243 108.062 69.6144 107.771 69.6454C107.69 69.6609 107.61 69.664 107.529 69.664Z" fill="#E9F2DE"/>
    <path d="M106.916 72.0132C106.863 72.0132 106.811 72.0039 106.758 71.9884C106.485 71.9015 106.334 71.6066 106.42 71.3335C106.894 69.8468 105.835 68.8784 105.822 68.869C105.609 68.6766 105.59 68.3476 105.779 68.1334C105.968 67.9193 106.296 67.9006 106.513 68.09C106.578 68.149 108.084 69.524 107.409 71.6501C107.341 71.8704 107.136 72.0132 106.916 72.0132Z" fill="#E9F2DE"/>
    <path d="M108.263 72.3047C108.195 72.3047 108.124 72.2923 108.059 72.2612C107.795 72.1464 107.675 71.8422 107.786 71.5753C108.108 70.8304 107.634 69.7626 107.424 69.4119C107.275 69.1667 107.352 68.847 107.597 68.698C107.842 68.549 108.161 68.6266 108.31 68.8718C108.353 68.9401 109.341 70.5914 108.74 71.9881C108.654 72.1867 108.465 72.3047 108.263 72.3047Z" fill="#E9F2DE"/>
    <path d="M49.2327 91.9204C48.8516 91.9204 48.4736 91.9142 48.0957 91.9049C47.8075 91.8956 47.5814 91.6566 47.5907 91.371C47.6 91.0823 47.8354 90.8651 48.1235 90.8651C52.5848 90.9861 57.328 90.3778 61.842 89.1052C62.5173 88.9159 63.3012 88.6645 64.0044 88.2454C64.3142 88.0592 64.3979 87.9319 64.4134 87.8575C64.4444 87.7023 64.2182 87.4602 63.9146 87.3143C63.2082 86.9791 62.3562 86.9698 61.7769 86.9884C59.7445 87.0598 57.7556 87.6588 56.0206 88.7265C55.7759 88.8755 55.4568 88.801 55.305 88.5558C55.1562 88.3106 55.2306 87.9909 55.4753 87.8388C57.3621 86.678 59.5277 86.0262 61.7397 85.9486C62.4244 85.9238 63.4437 85.9424 64.3545 86.3738C64.9463 86.6532 65.5845 87.2615 65.4296 88.053C65.3211 88.6117 64.8657 88.9407 64.5342 89.1393C63.7225 89.6235 62.8179 89.9122 62.1208 90.1077C57.8888 91.2996 53.4554 91.9204 49.2327 91.9204Z" fill="#E9F2DE"/>
    <path d="M60.8255 91.9361C56.5997 91.9361 52.2778 91.3215 47.9622 90.1079C47.2651 89.9124 46.3604 89.6237 45.5487 89.1395C45.2172 88.9409 44.7618 88.6119 44.6534 88.0532C44.5016 87.2617 45.1367 86.6534 45.7284 86.374C46.6393 85.9426 47.6586 85.924 48.3432 85.9488C50.5553 86.0264 52.7209 86.6782 54.6076 87.839C54.8524 87.988 54.9298 88.3108 54.778 88.556C54.6293 88.8012 54.3071 88.8788 54.0623 88.7267C52.3274 87.6621 50.3384 87.06 48.3061 86.9886C47.7298 86.9699 46.8778 86.9793 46.1715 87.3145C45.8648 87.4604 45.6417 87.7024 45.6727 87.8545C45.6882 87.929 45.7687 88.0594 46.0785 88.2425C46.7818 88.6615 47.5656 88.913 48.241 89.1023C52.8541 90.3997 57.4703 91.0018 61.9594 90.8777C62.2506 90.8808 62.4861 91.0981 62.4923 91.3836C62.4985 91.6723 62.2723 91.9113 61.9873 91.9175C61.6031 91.9299 61.2128 91.9361 60.8255 91.9361Z" fill="#E9F2DE"/>
    <path d="M60.9434 92.6684C60.8442 92.9012 60.7575 93.1433 60.7544 93.3947C60.7482 93.6461 60.838 93.9131 61.0332 94.0682C61.3028 94.2855 61.7179 94.2421 61.9998 94.0372C62.2818 93.8324 62.446 93.5064 62.5451 93.1743C62.7186 92.6032 62.7248 91.9825 62.5668 91.4082C62.5141 91.2189 62.4088 90.9675 62.1826 90.9365C61.972 90.9054 61.8666 91.0979 61.7644 91.2499C61.4546 91.7062 61.1602 92.1625 60.9434 92.6684Z" fill="#E9F2DE"/>
    <path d="M49.1705 92.6684C49.2696 92.9012 49.3563 93.1433 49.3594 93.3947C49.3656 93.6461 49.2758 93.9131 49.0806 94.0682C48.8111 94.2855 48.3959 94.2421 48.114 94.0372C47.8321 93.8324 47.6679 93.5064 47.5687 93.1743C47.3952 92.6032 47.389 91.9825 47.547 91.4082C47.5997 91.2189 47.705 90.9675 47.9312 90.9365C48.1419 90.9054 48.2472 91.0979 48.3495 91.2499C48.6593 91.7062 48.9536 92.1625 49.1705 92.6684Z" fill="#E9F2DE"/>
    <path d="M55.6853 105.248C64.6632 105.248 71.9411 104.357 71.9411 103.259C71.9411 102.16 64.6632 101.269 55.6853 101.269C46.7075 101.269 39.4296 102.16 39.4296 103.259C39.4296 104.357 46.7075 105.248 55.6853 105.248Z" fill="#808AFF"/>
    <path d="M34.5408 101.163C34.6089 101.166 34.674 101.119 34.6895 101.048C35.5043 97.5997 36.0619 94.0614 36.347 90.5292C36.4244 89.5701 36.4988 88.4372 36.4585 87.295C36.3408 83.9149 35.2502 80.5379 33.3015 77.5241C31.4984 74.7338 28.9394 72.2631 25.9063 70.3729C25.8382 70.3294 25.7452 70.3511 25.7019 70.4194C25.6585 70.4877 25.6802 70.5808 25.7483 70.6243C28.7473 72.4897 31.2723 74.9293 33.0506 77.6824C34.9683 80.6497 36.0434 83.977 36.158 87.3012C36.1983 88.4279 36.1239 89.5515 36.0465 90.5012C35.7614 94.0179 35.2069 97.5438 34.3983 100.977C34.3797 101.057 34.4292 101.135 34.5067 101.154C34.5222 101.16 34.5315 101.163 34.5408 101.163Z" fill="#565D70"/>
    <path d="M25.4016 69.4046C25.2591 69.2773 25.0887 69.1811 24.9152 69.1004C24.3761 68.8428 23.7503 68.6845 23.1833 68.8707C23.1307 68.8862 23.0811 68.908 23.0408 68.9483C23.0036 68.9856 22.985 69.0383 22.9757 69.088C22.9417 69.2835 23.047 69.4729 23.1616 69.6312C23.5117 70.106 24.026 70.4444 24.5868 70.6058C24.909 70.6989 26.0584 70.9348 25.922 70.3264C25.8539 69.9881 25.6618 69.6343 25.4016 69.4046Z" fill="#565D70"/>
    <path d="M27.9541 72.8408C27.2787 72.7756 26.5971 72.8191 25.9217 72.8718C25.4911 72.906 25.0604 72.9463 24.6298 72.9898C24.543 72.9991 24.4377 73.027 24.4222 73.1108C24.4036 73.204 24.5152 73.266 24.6019 73.3064C25.2029 73.5764 25.5716 74.1941 26.12 74.5603C26.5165 74.8242 26.9905 74.9452 27.4646 75.0104C27.8611 75.0632 28.2639 75.0787 28.6635 75.0569C28.9888 75.0383 29.3265 74.9887 29.593 74.8024C29.8625 74.6131 30.0267 74.2841 30.0329 73.9551C30.0391 73.5454 29.72 73.3002 29.3699 73.1667C28.9176 72.9898 28.4343 72.8874 27.9541 72.8408Z" fill="#565D70"/>
    <path d="M32.1427 78.5053C31.4673 78.4401 30.7857 78.4836 30.1103 78.5363C29.6797 78.5705 29.249 78.6108 28.8184 78.6543C28.7316 78.6636 28.6263 78.6915 28.6108 78.7753C28.5922 78.8685 28.7038 78.9305 28.7905 78.9709C29.3915 79.2409 29.7602 79.8586 30.3086 80.2248C30.7051 80.4886 31.1792 80.6097 31.6532 80.6749C32.0497 80.7276 32.4525 80.7432 32.8521 80.7214C33.1774 80.7028 33.5151 80.6531 33.7816 80.4669C34.0511 80.2776 34.2153 79.9486 34.2215 79.6196C34.2277 79.2099 33.9086 78.9647 33.5585 78.8312C33.1031 78.6574 32.6198 78.5519 32.1427 78.5053Z" fill="#565D70"/>
    <path d="M34.3731 83.8098C33.7535 83.5367 33.0905 83.3629 32.4337 83.2015C32.0124 83.0991 31.591 83.0028 31.1697 82.9066C31.0861 82.888 30.9776 82.8818 30.9342 82.9563C30.8878 83.0401 30.9714 83.1332 31.0427 83.1953C31.5291 83.6422 31.684 84.3437 32.0898 84.862C32.3842 85.2376 32.7962 85.5014 33.2238 85.7094C33.5831 85.8832 33.9611 86.026 34.3484 86.1284C34.6613 86.2122 34.999 86.2712 35.3119 86.1781C35.6279 86.0818 35.885 85.8242 35.9966 85.5107C36.1329 85.1259 35.9067 84.7907 35.6155 84.5548C35.2406 84.2537 34.8131 84.0023 34.3731 83.8098Z" fill="#565D70"/>
    <path d="M34.6431 90.3215C34.0513 89.9862 33.4131 89.7504 32.7718 89.5238C32.3629 89.381 31.9539 89.2413 31.5419 89.1079C31.4613 89.0799 31.3529 89.0613 31.3033 89.1327C31.2506 89.2103 31.325 89.3127 31.3869 89.3841C31.8269 89.8745 31.9136 90.5915 32.2668 91.1471C32.5209 91.5506 32.9081 91.8547 33.314 92.103C33.6548 92.3141 34.0172 92.491 34.3921 92.6307C34.6957 92.7455 35.0241 92.8387 35.3432 92.7735C35.6654 92.7083 35.9505 92.4786 36.0899 92.1775C36.2634 91.8051 36.0713 91.4513 35.8049 91.1874C35.461 90.8491 35.0613 90.5573 34.6431 90.3215Z" fill="#565D70"/>
    <path d="M31.294 73.6222C31.294 73.2343 31.3064 72.8432 31.3746 72.4614C31.4272 72.1572 31.514 71.8562 31.6038 71.5613C31.8919 70.5991 32.2234 69.6028 32.9329 68.892C32.9546 68.8703 32.9794 68.8454 33.0104 68.8361C33.0878 68.8082 33.1715 68.8703 33.2024 68.9479C33.2334 69.0224 33.2272 69.1093 33.2303 69.19C33.2365 69.37 33.2923 69.5438 33.348 69.7145C33.4937 70.1677 33.6393 70.6239 33.7849 71.0771C34.0048 71.7599 34.2248 72.4521 34.2744 73.1691C34.324 73.8861 34.1876 74.6403 33.7508 75.2083C33.6052 75.3976 33.4286 75.5652 33.2396 75.7111C33.0599 75.8508 32.8616 75.9781 32.6417 76.0277C32.3443 76.096 32.019 76.0122 31.7897 75.8104C31.5264 75.5808 31.4334 75.2052 31.3962 74.87C31.3436 74.4541 31.2971 74.0382 31.294 73.6222Z" fill="#565D70"/>
    <path d="M34.9311 77.9532C35.0922 77.5994 35.2657 77.2486 35.4856 76.9289C35.6622 76.6744 35.8636 76.4385 36.0681 76.2057C36.728 75.4484 37.4436 74.6817 38.3824 74.331C38.4133 74.3186 38.4443 74.3093 38.4753 74.3124C38.5558 74.3186 38.6085 74.4117 38.6054 74.4924C38.6023 74.5731 38.562 74.6507 38.5311 74.7252C38.4629 74.8928 38.4412 75.0728 38.4195 75.2498C38.3638 75.7246 38.308 76.1964 38.2522 76.6713C38.1686 77.3852 38.0818 78.1053 37.8309 78.7757C37.5799 79.4493 37.14 80.0762 36.508 80.4146C36.2973 80.5263 36.0681 80.6039 35.8326 80.6598C35.6126 80.7125 35.3803 80.7467 35.1572 80.7001C34.8598 80.638 34.5965 80.427 34.4694 80.1476C34.3238 79.8279 34.3982 79.4493 34.5004 79.1296C34.6336 78.7292 34.7607 78.3319 34.9311 77.9532Z" fill="#565D70"/>
    <path d="M38.0544 84.2499C38.4045 84.0823 38.7639 83.9302 39.1388 83.8278C39.4362 83.7471 39.7429 83.6974 40.0496 83.6509C41.041 83.4988 42.082 83.3746 43.0269 83.7129C43.0579 83.7222 43.0888 83.7347 43.1105 83.7595C43.1694 83.8185 43.1477 83.9209 43.095 83.983C43.0393 84.045 42.9618 84.0761 42.8875 84.1133C42.7295 84.1971 42.5962 84.3213 42.4661 84.4423C42.1191 84.7682 41.7721 85.0941 41.4221 85.42C40.8985 85.9104 40.3687 86.4071 39.7429 86.7578C39.1171 87.1085 38.3797 87.3072 37.6795 87.1551C37.4441 87.1054 37.221 87.0154 37.0073 86.9068C36.8028 86.8044 36.6076 86.6802 36.4651 86.5002C36.2761 86.2612 36.2141 85.9291 36.2947 85.6342C36.3907 85.2959 36.6882 85.0538 36.9732 84.8738C37.3264 84.6503 37.6765 84.4268 38.0544 84.2499Z" fill="#565D70"/>
    <path d="M37.8344 90.7342C38.1845 90.5666 38.5439 90.4145 38.9188 90.3121C39.2162 90.2314 39.5229 90.1818 39.8296 90.1352C40.821 89.9831 41.862 89.859 42.8069 90.1973C42.8379 90.2097 42.8689 90.219 42.8905 90.2438C42.9494 90.3028 42.9277 90.4052 42.8751 90.4673C42.8193 90.5294 42.7418 90.5604 42.6675 90.5977C42.5095 90.6815 42.3763 90.8056 42.2461 90.9267C41.8992 91.2526 41.5522 91.5785 41.2021 91.9044C40.6785 92.3948 40.1487 92.8914 39.5229 93.2421C38.8971 93.5929 38.1597 93.7915 37.4596 93.6394C37.2241 93.5898 37.0011 93.4998 36.7873 93.3911C36.5828 93.2887 36.3876 93.1645 36.2451 92.9845C36.0561 92.7455 35.9942 92.4134 36.0747 92.1185C36.1708 91.7802 36.4682 91.5381 36.7532 91.3581C37.1033 91.1346 37.4565 90.9143 37.8344 90.7342Z" fill="#565D70"/>
    <path d="M45.4184 91.1936C45.4339 91.085 45.4463 90.9795 45.4525 90.8708C45.784 86.035 39.817 88.7447 38.3082 90.9484C38.8411 89.9117 38.3268 88.4778 37.2611 88.0122C36.1953 87.5497 34.7981 88.1581 34.4077 89.2537C34.7113 86.7893 35.018 84.3248 35.3217 81.8604C35.458 80.7585 35.5385 79.4859 34.7516 78.7038C33.8686 77.8316 32.2886 78.1172 31.4149 78.9986C30.5413 79.8801 30.2098 81.1558 29.9898 82.3818C28.921 81.2489 26.6067 82.2049 26.647 83.763C26.7802 80.6033 26.8948 77.3319 25.7051 74.4019C24.943 72.524 23.1523 70.6679 21.1881 71.1521C19.447 71.5805 18.626 73.5669 18.2976 75.333C17.5416 79.4052 18.0249 83.6979 19.67 87.497C19.1991 86.4013 17.3898 86.6124 16.7764 87.6335C16.163 88.6578 16.4325 89.9769 16.891 91.0788C15.7509 89.9148 14.2514 89.0147 12.6249 88.9527C10.9984 88.8906 9.28207 89.8434 8.79257 91.3954C8.29997 92.9504 9.43388 94.9058 11.0604 94.9555C10.0287 95.0765 9.47105 96.3584 9.73439 97.3641C11.0542 102.408 24.4287 103.122 28.4563 102.721C34.5038 102.116 40.4242 99.1643 43.9995 94.2385C44.6594 93.326 45.2542 92.3048 45.4184 91.1936Z" fill="#F2EDE4"/>
    <path d="M28.351 101.75C28.32 101.75 28.2891 101.734 28.2674 101.706C24.94 97.2369 23.3042 89.4928 22.5142 83.788C21.6591 77.6113 21.5909 72.4217 21.5909 72.3689C21.5909 72.3131 21.6374 72.2634 21.6932 72.2634C21.7489 72.2634 21.7954 72.31 21.7985 72.3658C21.8016 72.5707 22.1145 93.0871 28.4347 101.582C28.4687 101.629 28.4594 101.694 28.413 101.728C28.3944 101.744 28.3727 101.75 28.351 101.75Z" fill="#D9C9AC"/>
    <path d="M26.5012 100.843C19.0905 100.843 11.8905 96.5751 11.8161 96.5316C11.7666 96.5037 11.7511 96.4385 11.779 96.3888C11.8099 96.3392 11.8719 96.3236 11.9215 96.3516C12.002 96.3981 19.9425 101.104 27.6908 100.595C27.7466 100.595 27.7962 100.635 27.8024 100.691C27.8055 100.747 27.7621 100.796 27.7063 100.802C27.3067 100.83 26.9039 100.843 26.5012 100.843Z" fill="#D9C9AC"/>
    <path d="M25.6157 96.5447C25.5785 96.5447 25.5413 96.523 25.5227 96.4858C25.498 96.433 25.5196 96.3709 25.5692 96.3461C33.0821 92.5967 33.361 79.6506 33.361 79.5202C33.361 79.4643 33.4105 79.4178 33.4663 79.4178C33.5221 79.4178 33.5685 79.4643 33.5685 79.5233C33.5654 79.6537 33.2866 92.7239 25.6622 96.5323C25.6467 96.5416 25.6312 96.5447 25.6157 96.5447Z" fill="#D9C9AC"/>
    <path d="M26.0673 98.1155C17.089 98.1155 11.1189 91.1287 11.0601 91.0573C11.0229 91.0139 11.0291 90.9487 11.0724 90.9115C11.1158 90.8742 11.1809 90.8804 11.2181 90.9239C11.2769 90.9953 17.2842 98.013 26.2656 97.9044C26.3213 97.9044 26.3678 97.951 26.3709 98.0068C26.3709 98.0627 26.3244 98.1124 26.2687 98.1124C26.2005 98.1155 26.1354 98.1155 26.0673 98.1155Z" fill="#D9C9AC"/>
    <path d="M24.7296 93.9593C24.7203 93.9593 24.7141 93.9593 24.7048 93.9562C19.3822 92.6712 18.1461 88.0558 18.1337 88.0124C18.1182 87.9565 18.1523 87.9006 18.208 87.8851C18.2638 87.8696 18.3196 87.9038 18.3351 87.9596C18.3475 88.0062 19.5557 92.4974 24.7543 93.7545C24.8101 93.7669 24.8442 93.8228 24.8318 93.8786C24.8194 93.9252 24.7791 93.9593 24.7296 93.9593Z" fill="#D9C9AC"/>
    <path d="M24.2579 92.3046C24.2207 92.3046 24.1835 92.2828 24.165 92.2456C24.1402 92.1928 24.1619 92.1307 24.2114 92.1059C27.1051 90.6688 28.7409 82.9962 28.7564 82.9186C28.7687 82.8627 28.8245 82.8255 28.8803 82.8379C28.936 82.8503 28.9732 82.9062 28.9608 82.962C28.8927 83.2817 27.2879 90.8085 24.3044 92.2921C24.2889 92.3015 24.2734 92.3046 24.2579 92.3046Z" fill="#D9C9AC"/>
    <path d="M22.4551 82.6544C22.4334 82.6544 22.4117 82.6482 22.39 82.6327C20.305 81.0156 19.4096 76.484 19.3724 76.2916C19.36 76.2357 19.3972 76.1798 19.4561 76.1705C19.5119 76.1581 19.5676 76.1954 19.5769 76.2543C19.5862 76.3009 20.494 80.9008 22.517 82.4682C22.5635 82.5024 22.5697 82.5675 22.5356 82.6141C22.517 82.642 22.486 82.6544 22.4551 82.6544Z" fill="#D9C9AC"/>
    <path d="M23.1246 87.1119C23.1091 87.1119 23.0936 87.1088 23.0781 87.1026C23.0254 87.0778 23.0038 87.0157 23.0285 86.9629C23.0533 86.9102 25.5535 81.6585 24.9153 77.6731C24.906 77.6173 24.9463 77.5645 25.002 77.5552C25.0578 77.5459 25.1136 77.5831 25.1198 77.6421C25.7673 81.6926 23.2392 87.0033 23.2144 87.0561C23.202 87.0902 23.1649 87.1119 23.1246 87.1119Z" fill="#D9C9AC"/>
    <path d="M27.0715 88.6111C27.0343 88.6111 26.9971 88.5893 26.9785 88.5521C26.9413 88.4776 26.0708 86.6867 26.0212 84.9765C26.0181 84.9206 26.0646 84.8709 26.1234 84.8709C26.1823 84.8709 26.2288 84.9144 26.2288 84.9734C26.2752 86.6401 27.1551 88.4466 27.1644 88.4652C27.1892 88.5179 27.1675 88.58 27.1179 88.6049C27.1024 88.608 27.087 88.6111 27.0715 88.6111Z" fill="#D9C9AC"/>
    <path d="M19.444 92.4788C18.9328 92.4788 18.3534 92.4353 17.771 92.2987C17.7152 92.2863 17.6811 92.2305 17.6935 92.1746C17.7059 92.1187 17.7648 92.0846 17.8174 92.097C19.4811 92.4819 21.1665 92.1001 21.1851 92.097C21.2409 92.0846 21.2966 92.1187 21.309 92.1746C21.3214 92.2305 21.2873 92.2863 21.2316 92.2987C21.1851 92.3111 20.4384 92.4788 19.444 92.4788Z" fill="#D9C9AC"/>
    <path d="M18.7031 96.5443C18.6598 96.5443 18.6195 96.5195 18.604 96.476C18.5947 96.4543 17.7737 94.1978 17.058 93.0804C17.027 93.0308 17.0394 92.9687 17.089 92.9376C17.1386 92.9066 17.2005 92.9221 17.2315 92.9687C17.9596 94.1047 18.7651 96.3115 18.7992 96.4046C18.8178 96.4574 18.7899 96.5195 18.7372 96.5381C18.7279 96.5443 18.7155 96.5443 18.7031 96.5443Z" fill="#D9C9AC"/>
    <path d="M15.2925 98.2451C15.2616 98.2451 15.2306 98.2296 15.2089 98.2048C15.1748 98.1582 15.181 98.093 15.2275 98.0589C15.2306 98.0558 15.6333 97.7361 15.6922 97.2053C15.7356 96.8018 15.5745 96.3766 15.212 95.939C15.1748 95.8955 15.181 95.8303 15.2244 95.7931C15.2677 95.7558 15.3328 95.7621 15.37 95.8055C15.7696 96.2866 15.9493 96.7677 15.8967 97.2302C15.8285 97.8509 15.3731 98.2079 15.3545 98.2234C15.339 98.2389 15.3142 98.2451 15.2925 98.2451Z" fill="#D9C9AC"/>
    <path d="M11.7294 93.4935C11.2709 93.4935 10.7442 93.4004 10.199 93.1179C10.1494 93.09 10.1277 93.0279 10.1556 92.9782C10.1835 92.9286 10.2455 92.9068 10.295 92.9348C11.7976 93.7138 13.1887 92.9441 13.2041 92.9379C13.2537 92.9099 13.3188 92.9286 13.3467 92.9782C13.3745 93.0279 13.356 93.0931 13.3064 93.121C13.2661 93.1396 12.6217 93.4935 11.7294 93.4935Z" fill="#D9C9AC"/>
    <path d="M30.5634 91.4325C30.5262 91.4325 30.4891 91.4108 30.4705 91.3735C30.4581 91.3487 29.256 88.8594 29.8508 86.3329C29.8632 86.277 29.9221 86.2429 29.9748 86.2553C30.0305 86.2677 30.0646 86.3236 30.0522 86.3794C29.476 88.8377 30.644 91.2587 30.6564 91.2835C30.6811 91.3363 30.6595 91.3983 30.6099 91.4232C30.5944 91.4294 30.5789 91.4325 30.5634 91.4325Z" fill="#D9C9AC"/>
    <path d="M26.9043 99.4249C26.864 99.4249 26.8268 99.4032 26.8113 99.3659C26.7865 99.3131 26.8082 99.2511 26.8609 99.2293C26.929 99.1983 33.5714 96.0479 36.5301 89.9737C36.5549 89.9209 36.6168 89.8992 36.6695 89.9271C36.7222 89.952 36.7438 90.014 36.716 90.0668C33.7263 96.2093 27.0158 99.3876 26.9476 99.4218C26.9352 99.4218 26.9198 99.4249 26.9043 99.4249Z" fill="#D9C9AC"/>
    <path d="M28.0223 101.29C27.9727 101.29 27.9293 101.253 27.92 101.203C27.9107 101.147 27.951 101.094 28.0068 101.085C34.3889 100.073 43.6058 90.0479 43.6987 89.9486C43.7359 89.9051 43.804 89.902 43.8443 89.9424C43.8877 89.9796 43.8908 90.0479 43.8505 90.0882C43.7576 90.1907 34.4911 100.269 28.0378 101.29C28.0316 101.29 28.0285 101.29 28.0223 101.29Z" fill="#D9C9AC"/>
    <path d="M32.3075 95.7068C32.2517 95.7068 32.2052 95.6634 32.2021 95.6044C32.2021 95.5827 32.1494 93.4131 32.9581 91.2901C32.9797 91.2373 33.0386 91.2094 33.0913 91.2311C33.1439 91.2528 33.1718 91.3118 33.1501 91.3646C32.3539 93.4472 32.4066 95.5765 32.4066 95.5982C32.4128 95.6572 32.3694 95.7037 32.3075 95.7068C32.3105 95.7068 32.3105 95.7068 32.3075 95.7068Z" fill="#D9C9AC"/>
    <path d="M35.0277 94.0989C34.4174 94.0989 34.0332 93.9623 33.9991 93.9499C33.9465 93.9313 33.9186 93.8692 33.9372 93.8165C33.9557 93.7637 34.0146 93.7357 34.0704 93.7544C34.089 93.7606 35.7836 94.3503 37.8036 92.9381C37.8501 92.9039 37.9151 92.9163 37.9492 92.9629C37.9833 93.0094 37.9709 93.0746 37.9244 93.1088C36.7812 93.9096 35.7465 94.0989 35.0277 94.0989Z" fill="#D9C9AC"/>
    <path d="M37.1806 97.6746C36.2698 97.6746 35.8484 97.2711 35.8237 97.2462C35.7834 97.2059 35.7834 97.1407 35.8237 97.0973C35.8639 97.0569 35.929 97.0569 35.9693 97.0973C35.9786 97.1066 36.8522 97.926 38.8598 97.0755C38.9125 97.0507 38.9744 97.0786 38.9961 97.1314C39.0178 97.1842 38.993 97.2462 38.9404 97.268C38.2247 97.5721 37.6392 97.6746 37.1806 97.6746Z" fill="#D9C9AC"/>
    <path d="M31.7654 99.9397C31.7097 99.9397 31.6632 99.8932 31.6601 99.8373C31.6601 99.7783 31.6446 98.4065 32.6019 97.2984C32.6391 97.2549 32.7042 97.2518 32.7475 97.2891C32.7909 97.3263 32.7971 97.3915 32.7568 97.435C31.8522 98.4809 31.8646 99.8187 31.8646 99.8342C31.8708 99.8932 31.8243 99.9397 31.7654 99.9397Z" fill="#D9C9AC"/>
    <path d="M19.0752 52.9548C20.2555 52.9548 20.2555 51.1174 19.0752 51.1174C17.8948 51.1205 17.8948 52.9548 19.0752 52.9548Z" fill="#8E97FD"/>
    <path d="M40.548 21.0191C41.7284 21.0191 41.7284 19.1817 40.548 19.1817C39.3676 19.1817 39.3645 21.0191 40.548 21.0191Z" fill="#8E97FD"/>
    <path d="M85.0711 39.3657C85.6597 39.3657 85.6628 38.4469 85.0711 38.4469C84.4824 38.4469 84.4793 39.3657 85.0711 39.3657Z" fill="#8E97FD"/>
    <path d="M35.8175 32.1402C36.4061 32.1402 36.4092 31.2215 35.8175 31.2215C35.2288 31.2215 35.2288 32.1402 35.8175 32.1402Z" fill="#8E97FD"/>
    <path d="M93.8946 38.4473C94.4833 38.4473 94.4864 37.5286 93.8946 37.5286C93.3029 37.5286 93.3029 38.4473 93.8946 38.4473Z" fill="#8E97FD"/>
    <path d="M114.754 61.149C115.343 61.149 115.346 60.2303 114.754 60.2303C114.163 60.2303 114.163 61.149 114.754 61.149Z" fill="white"/>
    <path d="M34.3955 23.9955C34.9842 23.9955 34.9873 23.0768 34.3955 23.0768C33.8069 23.0768 33.8038 23.9955 34.3955 23.9955Z" fill="#59D6B8"/>
    <path d="M56.4136 0.918736C57.0022 0.918736 57.0053 0 56.4136 0C55.8249 0 55.8249 0.918736 56.4136 0.918736Z" fill="#59D6B8"/>
    <path d="M64.2422 8.14176C64.8308 8.14176 64.8339 7.22302 64.2422 7.22302C63.6505 7.22302 63.6505 8.14176 64.2422 8.14176Z" fill="#59D6B8"/>
    <path d="M70.4543 90.7313C71.0429 90.7313 71.046 89.8126 70.4543 89.8126C69.8657 89.8126 69.8657 90.7313 70.4543 90.7313Z" fill="#59D6B8"/>
    <path d="M103.526 56.108C104.115 56.108 104.118 55.1892 103.526 55.1892C102.935 55.1892 102.935 56.108 103.526 56.108Z" fill="#59D6B8"/>
    <path d="M13.2541 34.0955C13.8427 34.0955 13.8458 33.1767 13.2541 33.1767C12.6655 33.1767 12.6655 34.0955 13.2541 34.0955Z" fill="#59D6B8"/>
    <path d="M111.179 47.5944C111.768 47.5944 111.771 46.6757 111.179 46.6757C110.59 46.6757 110.587 47.5944 111.179 47.5944Z" fill="#59D6B8"/>
    <path d="M3.43263 68.6473C4.02127 68.6473 4.02437 67.7285 3.43263 67.7285C2.8409 67.7285 2.8409 68.6473 3.43263 68.6473Z" fill="#8ABFA3"/>
    <path d="M82.9648 18.2753C83.5534 18.2753 83.5565 17.3566 82.9648 17.3566C82.3762 17.3566 82.3762 18.2753 82.9648 18.2753Z" fill="#8E97FD"/>
    <path d="M99.4741 85.8084C100.063 85.8084 100.066 84.8897 99.4741 84.8897C98.8855 84.8897 98.8855 85.8084 99.4741 85.8084Z" fill="white"/>
    <path d="M4.34696 58.8953C4.34696 58.855 4.34696 58.8146 4.34696 58.7743C4.34696 58.2932 3.92562 57.8338 3.42992 57.8556C2.93422 57.8773 2.51288 58.2591 2.51288 58.7743C2.51288 58.8146 2.51288 58.855 2.51288 58.8953C2.51288 59.3764 2.93422 59.8358 3.42992 59.8141C3.92871 59.7892 4.34696 59.4075 4.34696 58.8953Z" fill="#8E97FD"/>
    <path d="M105.237 83.81C105.9 83.81 105.9 82.7764 105.237 82.7764C104.574 82.7795 104.574 83.81 105.237 83.81Z" fill="#8E6DAA"/>
    <path d="M113.425 57.4858C114.605 57.4858 114.605 55.6484 113.425 55.6484C112.245 55.6484 112.245 57.4858 113.425 57.4858Z" fill="#8E6DAA"/>
    <path d="M74.9279 17.8161C76.1083 17.8161 76.1083 15.9786 74.9279 15.9786C73.7475 15.9786 73.7444 17.8161 74.9279 17.8161Z" fill="#8E97FD"/>
    <path d="M14.8093 83.8128C15.9897 83.8128 15.9897 81.9753 14.8093 81.9753C13.6289 81.9753 13.6289 83.8128 14.8093 83.8128Z" fill="#E9F2DE"/>
    </svg>
    