<svg width="174" height="158" viewBox="0 0 174 158" fill="none" xmlns="http://www.w3.org/2000/svg">
    <path d="M119.087 48.0444C119.087 48.0444 108.359 37.6755 91.2205 39.2038C74.0802 40.7304 59.3755 52.2239 47.2193 61.2625C35.0612 70.3026 31.7012 83.4393 38.649 93.1412C45.5967 102.843 56.8161 97.9363 71.0092 103.671C85.2023 109.405 87.8737 112.973 103.762 110.454C119.65 107.936 131.877 90.9131 130.224 73.6362C128.57 56.3576 119.087 48.0444 119.087 48.0444Z" fill="#F1B869"/>
    <path d="M71.2335 68.1652C70.8199 68.2055 70.4556 67.9511 70.4213 67.5991L69.7268 60.4782C69.697 60.1726 69.3823 59.9528 69.0245 59.9877C68.6667 60.0226 68.4004 60.2991 68.4302 60.6046L68.9487 65.9202C68.9792 66.2331 68.7063 66.5164 68.34 66.5521C67.9736 66.5878 67.6512 66.3626 67.6206 66.0497L67.3344 63.1151C67.3124 62.889 67.0798 62.7266 66.8151 62.7524C66.5504 62.7782 66.3536 62.9825 66.3756 63.2086L66.4821 64.3001L65.426 64.4031L65.414 64.2809L66.3271 64.1918L66.2325 63.2226C66.2039 62.9292 66.4597 62.6637 66.8032 62.6302C67.1466 62.5967 67.4489 62.8078 67.4775 63.1011L67.7638 66.0358C67.7877 66.2815 68.0404 66.4579 68.328 66.4299C68.6157 66.4018 68.8295 66.1799 68.8056 65.9342L68.2871 60.6186C68.2508 60.2458 68.5761 59.9081 69.0126 59.8655C69.4491 59.8229 69.8335 60.0914 69.8699 60.4642L70.5644 67.5851C70.5921 67.8699 70.8867 68.0756 71.2216 68.0429C71.555 68.0104 71.8042 67.7517 71.7765 67.4669L70.9292 58.7791C70.885 58.3268 71.2799 57.9169 71.8094 57.8653C72.3389 57.8136 72.8055 58.1395 72.8496 58.5918L73.693 67.2392C73.7228 67.5448 74.0375 67.7646 74.3953 67.7297C74.753 67.6948 75.0193 67.4184 74.9895 67.1128L74.3175 60.2217C74.2753 59.789 74.6531 59.3968 75.1597 59.3474C75.6662 59.298 76.1127 59.6098 76.1549 60.0425L76.6507 65.1259C76.6766 65.3911 76.951 65.5827 77.2615 65.5524C77.572 65.5222 77.8042 65.2811 77.7784 65.0159L77.5088 62.2524C77.4777 61.9333 77.7558 61.6446 78.1293 61.6082C78.5028 61.5718 78.8329 61.8012 78.864 62.1202L78.9459 62.9599L80.0021 62.8569L80.014 62.9791L78.8148 63.0961L78.7209 62.1341C78.6964 61.8824 78.4361 61.7017 78.1413 61.7304C77.8465 61.7592 77.6275 61.9878 77.6519 62.2384L77.9215 65.0019C77.9539 65.3344 77.6627 65.6367 77.2734 65.6747C76.8842 65.7126 76.54 65.4723 76.5076 65.1398L76.0118 60.0564C75.9762 59.691 75.5995 59.4279 75.1716 59.4696C74.7437 59.5114 74.4249 59.8423 74.4606 60.2077L75.1326 67.0988C75.169 67.4716 74.8437 67.8094 74.4072 67.8519C73.9707 67.8945 73.5863 67.626 73.5499 67.2532L72.7065 58.6057C72.669 58.2207 72.2721 57.9435 71.8213 57.9875C71.3705 58.0315 71.0347 58.3801 71.0723 58.7651L71.9196 67.4529C71.9553 67.8048 71.647 68.1248 71.2335 68.1652Z" fill="#FEDEA5"/>
    <path d="M85.043 66.818C84.6295 66.8583 84.2652 66.6039 84.2308 66.2519L83.5363 59.131C83.5065 58.8254 83.1918 58.6057 82.8341 58.6405C82.4763 58.6754 82.21 58.9519 82.2398 59.2575L82.7582 64.5731C82.7887 64.886 82.5159 65.1692 82.1495 65.2049C81.7832 65.2407 81.4607 65.0155 81.4302 64.7026L81.144 61.7679C81.1219 61.5418 80.8894 61.3794 80.6247 61.4052C80.3599 61.4311 80.1631 61.6353 80.1852 61.8614L80.2917 62.9529L79.2355 63.0559L79.2236 62.9337L80.1366 62.8447L80.0421 61.8754C80.0135 61.5821 80.2693 61.3165 80.6127 61.283C80.9562 61.2495 81.2585 61.4606 81.2871 61.754L81.5733 64.6886C81.5973 64.9343 81.85 65.1108 82.1376 65.0827C82.4253 65.0547 82.6391 64.8327 82.6151 64.587L82.0967 59.2714C82.0603 58.8986 82.3857 58.5609 82.8221 58.5183C83.2586 58.4757 83.6431 58.7443 83.6794 59.117L84.3739 66.2379C84.4017 66.5227 84.6963 66.7284 85.0311 66.6958C85.3646 66.6633 85.6138 66.4045 85.586 66.1197L84.7387 57.4319C84.6946 56.9797 85.0895 56.5697 85.619 56.5181C86.1485 56.4665 86.6151 56.7924 86.6592 57.2446L87.5026 65.8921C87.5324 66.1976 87.8471 66.4174 88.2048 66.3825C88.5626 66.3476 88.8289 66.0712 88.7991 65.7656L88.127 58.8745C88.0848 58.4419 88.4626 58.0496 88.9692 58.0002C89.4758 57.9508 89.9223 58.2626 89.9645 58.6953L90.4603 63.7787C90.4861 64.0439 90.7605 64.2356 91.0711 64.2053C91.3816 64.175 91.6138 63.934 91.5879 63.6687L91.3184 60.9052C91.2873 60.5862 91.5654 60.2975 91.9403 60.2609C92.3138 60.2245 92.6425 60.454 92.6736 60.773L92.7555 61.6127L93.8116 61.5097L93.8235 61.6319L92.6243 61.7489L92.5305 60.787C92.5059 60.5352 92.2471 60.3544 91.9523 60.3831C91.6575 60.4119 91.4371 60.6407 91.4615 60.8912L91.731 63.6548C91.7635 63.9872 91.4722 64.2895 91.083 64.3275C90.6937 64.3655 90.3496 64.1251 90.3172 63.7927L89.8214 58.7093C89.7857 58.3438 89.409 58.0807 88.9811 58.1225C88.5533 58.1642 88.2345 58.4951 88.2701 58.8606L88.9422 65.7517C88.9786 66.1245 88.6532 66.4622 88.2168 66.5048C87.7803 66.5473 87.3958 66.2788 87.3595 65.906L86.5161 57.2585C86.4785 56.8735 86.0817 56.5964 85.6309 56.6403C85.1801 56.6843 84.8443 57.0329 84.8818 57.4179L85.7291 66.1058C85.7649 66.4576 85.4566 66.7777 85.043 66.818Z" fill="#FEDEA5"/>
    <path d="M98.8527 65.4712C98.4391 65.5115 98.0748 65.2571 98.0405 64.9051L97.346 57.7842C97.3162 57.4786 97.0015 57.2588 96.6437 57.2937C96.2859 57.3286 96.0196 57.6051 96.0494 57.9106L96.5679 63.2263C96.5984 63.5392 96.3255 63.8224 95.9592 63.8581C95.5928 63.8939 95.2704 63.6687 95.2398 63.3558L94.9536 60.4211C94.9316 60.195 94.699 60.0326 94.4343 60.0584C94.1696 60.0843 93.9728 60.2885 93.9948 60.5146L94.1013 61.6061L93.0452 61.7091L93.0332 61.5869L93.9463 61.4979L93.8517 60.5286C93.8231 60.2353 94.0789 59.9697 94.4224 59.9362C94.7658 59.9027 95.0681 60.1138 95.0967 60.4072L95.383 63.3418C95.4069 63.5875 95.6596 63.764 95.9472 63.7359C96.2349 63.7079 96.4487 63.4859 96.4248 63.2402L95.9063 57.9246C95.87 57.5518 96.1953 57.2141 96.6318 57.1715C97.0683 57.1289 97.4527 57.3975 97.4891 57.7702L98.1836 64.8911C98.2113 65.1759 98.5059 65.3816 98.8408 65.349C99.1756 65.3163 99.4234 65.0577 99.3957 64.7729L98.5484 56.0851C98.5042 55.6329 98.8991 55.2229 99.4286 55.1713C99.9581 55.1197 100.425 55.4456 100.469 55.8978L101.312 64.5453C101.342 64.8508 101.657 65.0706 102.014 65.0357C102.372 65.0008 102.639 64.7244 102.609 64.4188L101.937 57.5277C101.894 57.095 102.272 56.7028 102.779 56.6534C103.285 56.604 103.732 56.9158 103.774 57.3485L104.27 62.4319C104.296 62.6971 104.57 62.8888 104.881 62.8585C105.191 62.8282 105.423 62.5871 105.398 62.3219L105.128 59.5584C105.097 59.2394 105.375 58.9507 105.75 58.9141C106.123 58.8777 106.452 59.1072 106.483 59.4262L106.565 60.2659L107.621 60.1629L107.633 60.2851L106.434 60.4021L106.34 59.4402C106.316 59.1884 106.057 59.0076 105.762 59.0363C105.467 59.0651 105.247 59.2939 105.271 59.5444L105.541 62.308C105.573 62.6404 105.282 62.9427 104.893 62.9807C104.503 63.0187 104.159 62.7783 104.127 62.4459L103.631 57.3625C103.595 56.997 103.219 56.7339 102.791 56.7757C102.363 56.8174 102.044 57.1483 102.08 57.5138L102.752 64.4049C102.788 64.7777 102.463 65.1154 102.026 65.158C101.59 65.2005 101.205 64.932 101.169 64.5592L100.326 55.9117C100.288 55.5267 99.8913 55.2496 99.4405 55.2935C98.9897 55.3375 98.6539 55.6861 98.6915 56.0711L99.5388 64.759C99.5745 65.1108 99.2663 65.4309 98.8527 65.4712Z" fill="#FEDEA5"/>
    <path d="M94.8575 49.0086L94.747 47.8756L93.5705 48.5616L94.8575 49.0086Z" fill="#263238"/>
    <path d="M93.3268 47.9868L93.1026 48.0087L93.2155 49.1661L93.4397 49.1443L93.3268 47.9868Z" fill="#263238"/>
    <path d="M101.379 48.3724L102.556 47.6852L101.269 47.2394L101.379 48.3724Z" fill="#263238"/>
    <path d="M102.909 47.0525L102.685 47.0743L102.798 48.2318L103.022 48.21L102.909 47.0525Z" fill="#263238"/>
    <path d="M97.9748 46.4712C96.9273 46.5733 96.1454 47.3319 96.2266 48.1643C96.3079 48.9979 97.2231 49.5897 98.269 49.4877C99.3165 49.3855 100.098 48.6269 100.017 47.7946C99.9359 46.961 99.0223 46.369 97.9748 46.4712ZM97.9306 48.8001L97.3669 48.8551L97.2119 47.2649L97.7755 47.21L97.9306 48.8001ZM99.0319 48.6927L98.4682 48.7477L98.3131 47.1575L98.8768 47.1025L99.0319 48.6927Z" fill="#263238"/>
    <path d="M103.265 52.2874C103.147 52.299 103.043 52.2265 103.033 52.125L102.871 50.4689C102.861 50.3674 102.949 50.2762 103.068 50.2646C103.187 50.253 103.291 50.3255 103.301 50.427L103.462 52.0832C103.472 52.1834 103.384 52.2758 103.265 52.2874Z" fill="#FFDB9D"/>
    <path d="M102.541 52.1371C102.422 52.1487 102.318 52.0761 102.309 51.9747L102.19 50.7561C102.18 50.6546 102.268 50.5634 102.387 50.5518C102.505 50.5402 102.609 50.6128 102.619 50.7142L102.738 51.9328C102.748 52.0343 102.66 52.1255 102.541 52.1371Z" fill="#FFDB9D"/>
    <path d="M101.839 52.2056C101.72 52.2172 101.616 52.1446 101.606 52.0432L101.487 50.8246C101.477 50.7231 101.565 50.6319 101.684 50.6203C101.803 50.6087 101.907 50.6813 101.917 50.7827L102.035 52.0013C102.045 52.1027 101.957 52.194 101.839 52.2056Z" fill="#FFDB9D"/>
    <path d="M110.268 51.3836C110.149 51.3951 110.045 51.3226 110.035 51.2211L109.916 50.0026C109.906 49.9011 109.994 49.8099 110.113 49.7983C110.232 49.7867 110.336 49.8592 110.345 49.9607L110.464 51.1793C110.474 51.2807 110.386 51.372 110.268 51.3836Z" fill="#FFDB9D"/>
    <path d="M109.565 51.452C109.446 51.4636 109.342 51.3911 109.332 51.2896L109.213 50.071C109.204 49.9696 109.291 49.8783 109.41 49.8668C109.529 49.8552 109.633 49.9277 109.643 50.0292L109.762 51.2478C109.771 51.3492 109.684 51.4404 109.565 51.452Z" fill="#FFDB9D"/>
    <path d="M103.968 52.2187C103.849 52.2303 103.745 52.1577 103.735 52.0563L103.574 50.4001C103.564 50.2987 103.652 50.2074 103.771 50.1959C103.89 50.1843 103.993 50.2568 104.003 50.3583L104.165 52.0144C104.175 52.1147 104.085 52.2073 103.968 52.2187Z" fill="#FFDB9D"/>
    <path d="M104.698 52.4412C104.579 52.4528 104.475 52.3803 104.465 52.2788L104.247 50.0397C104.237 49.9382 104.325 49.847 104.443 49.8354C104.562 49.8238 104.666 49.8963 104.676 49.9978L104.894 52.237C104.904 52.3384 104.816 52.4297 104.698 52.4412Z" fill="#FFDB9D"/>
    <path d="M105.445 52.8325C105.326 52.8441 105.222 52.7716 105.213 52.6701L104.905 49.5131C104.895 49.4116 104.983 49.3204 105.101 49.3088C105.22 49.2972 105.324 49.3697 105.334 49.4712L105.642 52.6283C105.652 52.7285 105.564 52.821 105.445 52.8325Z" fill="#FFDB9D"/>
    <path d="M108.885 51.7392C108.766 51.7508 108.663 51.6783 108.653 51.5768L108.491 49.9206C108.481 49.8192 108.569 49.728 108.688 49.7164C108.807 49.7048 108.911 49.7773 108.92 49.8788L109.082 51.5349C109.092 51.6352 109.002 51.7278 108.885 51.7392Z" fill="#FFDB9D"/>
    <path d="M108.182 51.8078C108.063 51.8194 107.96 51.7469 107.95 51.6454L107.788 49.9892C107.778 49.8878 107.866 49.7966 107.985 49.785C108.104 49.7734 108.208 49.8459 108.217 49.9474L108.379 51.6035C108.389 51.7038 108.301 51.7962 108.182 51.8078Z" fill="#FFDB9D"/>
    <path d="M107.508 52.1672C107.389 52.1788 107.285 52.1062 107.275 52.0048L107.057 49.7656C107.047 49.6642 107.135 49.5729 107.254 49.5613C107.373 49.5498 107.476 49.6223 107.486 49.7237L107.705 51.9629C107.715 52.0644 107.627 52.1556 107.508 52.1672Z" fill="#FFDB9D"/>
    <path d="M106.85 52.6953C106.731 52.7069 106.628 52.6344 106.618 52.5329L106.31 49.3758C106.3 49.2744 106.388 49.1832 106.507 49.1716C106.625 49.16 106.729 49.2325 106.739 49.334L107.047 52.4911C107.057 52.5913 106.969 52.6838 106.85 52.6953Z" fill="#FFDB9D"/>
    <path d="M106.204 53.3469C106.086 53.3584 105.982 53.2859 105.972 53.1845L105.55 48.8601C105.54 48.7586 105.628 48.6674 105.747 48.6558C105.866 48.6442 105.97 48.7168 105.979 48.8182L106.401 53.1426C106.411 53.244 106.323 53.3353 106.204 53.3469Z" fill="#FFDB9D"/>
    <path d="M58.9081 65.0496C58.3576 63.5445 56.717 62.5657 54.9472 62.7383C53.1647 62.9122 51.7304 64.2111 51.5022 65.8154C49.6909 66.247 48.4314 67.8389 48.599 69.5582C48.7751 71.3635 50.4063 72.7024 52.3968 72.6735L52.3981 71.9693C50.8108 71.9937 49.508 70.9241 49.3675 69.4832C49.2264 68.0366 50.349 66.7044 51.9201 66.4497L52.2268 66.3995L52.2435 66.114C52.3189 64.7361 53.5102 63.5855 55.0155 63.4387C56.524 63.2916 57.9154 64.1932 58.253 65.5365L58.3365 65.8703L58.7044 65.7968C58.8167 65.7742 58.9292 65.7546 59.0426 65.7435C60.718 65.5801 62.1996 66.6902 62.3483 68.2143C62.4972 69.7413 61.2545 71.1142 59.5823 71.2773L59.6506 71.9776C61.748 71.7731 63.3031 70.0509 63.1167 68.1394C62.9312 66.2045 61.0288 64.7906 58.9081 65.0496Z" fill="#4A5161"/>
    <path d="M57.925 67.9765C57.9144 67.8675 57.8473 67.7668 57.7433 67.7103C57.6392 67.6538 57.5113 67.646 57.3978 67.6889L53.4701 69.1731C53.3105 69.2321 53.2137 69.3806 53.2288 69.5356L53.6395 73.7462C53.5027 73.7132 53.3551 73.6986 53.2071 73.713C52.552 73.7769 52.0671 74.3139 52.1254 74.9109C52.1836 75.5079 52.7631 75.9411 53.4181 75.8772C54.0385 75.8167 54.4999 75.3313 54.4996 74.775L54.5122 74.7737L54.199 71.562L57.382 70.362L57.5633 72.2219C57.4297 72.1886 57.2855 72.1765 57.1375 72.191C56.4825 72.2549 55.9976 72.7918 56.0558 73.3888C56.114 73.9858 56.6935 74.419 57.3486 74.3551C58.0036 74.2912 58.4885 73.7543 58.4303 73.1573C58.4297 73.1515 58.426 73.1461 58.4255 73.1403L57.9219 67.9768L57.925 67.9765ZM57.3103 69.6272L54.1276 70.83L54.0193 69.7193L57.2022 68.5193L57.3103 69.6272Z" fill="#4A5161"/>
    <path d="M83.9971 57.4466C83.9712 57.1806 84.3584 56.853 84.2963 56.6001C84.2313 56.3417 83.7283 56.2053 83.6251 55.9622C83.5216 55.7154 83.8021 55.3112 83.6651 55.083C83.5256 54.8513 82.9946 54.8354 82.824 54.6241C82.6509 54.411 82.8056 53.9612 82.6017 53.7704C82.3978 53.5797 81.8787 53.6864 81.6486 53.5214C81.4185 53.3564 81.4371 52.8909 81.1832 52.7533C80.9317 52.6175 80.4544 52.836 80.1815 52.7293C79.9109 52.6243 79.7896 52.1724 79.5022 52.098C79.2171 52.0253 78.8202 52.3442 78.5228 52.3037C78.23 52.2646 77.9786 51.8582 77.6758 51.853C77.3796 51.8471 77.0875 52.2446 76.7837 52.2743C76.48 52.3039 76.1167 51.9722 75.827 52.0333C75.531 52.0969 75.3626 52.5423 75.0831 52.6391C74.7991 52.7364 74.3459 52.5004 74.0824 52.6266C73.8148 52.7551 73.7831 53.2219 73.5379 53.3772C73.2907 53.5347 72.7822 53.4104 72.5597 53.5944C72.3372 53.7784 72.4454 54.2316 72.2515 54.4379C72.0576 54.6442 71.5277 54.6399 71.3645 54.8664C71.2032 55.0908 71.4399 55.5044 71.3114 55.7469C71.1848 55.9872 70.6668 56.1054 70.5747 56.3597C70.4846 56.612 70.8377 56.9524 70.7838 57.2146C70.7318 57.4728 70.2624 57.7041 70.2486 57.9702C70.2365 58.2303 70.6797 58.4769 70.7056 58.7429C70.7316 59.009 70.3444 59.3366 70.4065 59.5894C70.4714 59.8478 70.9745 59.9842 71.0777 60.2273C71.1812 60.4742 70.9007 60.8783 71.0376 61.1065C71.1772 61.3383 71.7082 61.3541 71.8788 61.5655C72.0518 61.7785 71.8972 62.2284 72.1011 62.4191C72.305 62.6098 72.8241 62.5032 73.0542 62.6681C73.2843 62.8331 73.2657 63.2987 73.5196 63.4362C73.7711 63.5721 74.2484 63.3535 74.5213 63.4603C74.7919 63.5653 74.9132 64.0172 75.2006 64.0915C75.4857 64.1642 75.8826 63.8453 76.1799 63.8859C76.4728 63.925 76.7242 64.3313 77.0269 64.3366C77.323 64.3405 77.6153 63.9449 77.9191 63.9153C78.2228 63.8857 78.5861 64.2174 78.8758 64.1563C79.1718 64.0926 79.3402 63.6472 79.6197 63.5504C79.9037 63.4532 80.3569 63.6891 80.6204 63.563C80.888 63.4344 80.9197 62.9676 81.1649 62.8123C81.4121 62.6549 81.9206 62.7792 82.1431 62.5952C82.3656 62.4112 82.2574 61.958 82.4513 61.7517C82.6452 61.5453 83.1751 61.5497 83.3383 61.3231C83.4995 61.0987 83.2629 60.6851 83.3914 60.4427C83.518 60.2023 84.036 60.0842 84.1281 59.8298C84.2182 59.5776 83.8651 59.2371 83.919 58.9749C83.971 58.7167 84.4404 58.4854 84.4542 58.2194C84.4683 57.9571 84.0231 57.7127 83.9971 57.4466Z" fill="#4A5161"/>
    <path d="M77.0754 64.4298C77.0579 64.4315 77.0402 64.4313 77.0225 64.4311C76.8236 64.4273 76.6614 64.3021 76.5061 64.18C76.3891 64.089 76.2697 63.9963 76.1624 63.9817C76.0507 63.9675 75.8975 64.0249 75.7486 64.0819C75.5552 64.1568 75.353 64.2326 75.1674 64.185C74.9795 64.1357 74.8604 63.9773 74.7483 63.824C74.6643 63.7085 74.5755 63.5896 74.4744 63.5492C74.3734 63.5089 74.2101 63.5306 74.0511 63.5519C73.8421 63.58 73.6265 63.6088 73.461 63.5186C73.2956 63.4285 73.2294 63.2475 73.1662 63.074C73.1179 62.9415 73.0694 62.8052 72.984 62.744C72.8986 62.6827 72.736 62.6677 72.5779 62.6522C72.3686 62.632 72.1525 62.6106 72.019 62.4864C71.8856 62.3622 71.8758 62.1719 71.8666 61.9873C71.8596 61.8469 71.8521 61.7027 71.7871 61.6241C71.7242 61.5452 71.5715 61.4944 71.4253 61.4429C71.2311 61.3749 71.028 61.3059 70.9382 61.1542C70.8486 61.0045 70.8943 60.8165 70.9407 60.6362C70.9757 60.4975 71.0103 60.355 70.9726 60.2621C70.9352 60.173 70.8055 60.0871 70.6829 60.0063C70.5154 59.8951 70.3412 59.7826 70.3001 59.6108C70.2597 59.4447 70.3578 59.2748 70.4543 59.1108C70.528 58.9838 70.6056 58.8526 70.5959 58.753C70.5862 58.6535 70.4847 58.5397 70.3879 58.4294C70.2615 58.2871 70.13 58.1377 70.14 57.9686C70.1494 57.7938 70.2962 57.648 70.4393 57.5085C70.5459 57.4034 70.6546 57.2962 70.6741 57.2016C70.6931 57.1031 70.6316 56.97 70.5707 56.8426C70.4903 56.6746 70.4092 56.499 70.4682 56.3348C70.5292 56.1684 70.7127 56.0597 70.8903 55.9574C71.024 55.8806 71.1617 55.7995 71.2103 55.7098C71.2589 55.62 71.2383 55.4771 71.2181 55.338C71.1915 55.1551 71.1643 54.9665 71.2712 54.8189C71.3781 54.6712 71.586 54.6085 71.7853 54.5485C71.9375 54.5027 72.0941 54.4565 72.166 54.3799C72.238 54.3034 72.2593 54.1602 72.281 54.0209C72.3094 53.8365 72.3393 53.6462 72.4844 53.5277C72.6293 53.4073 72.8464 53.3938 73.057 53.381C73.2171 53.3712 73.3815 53.361 73.4728 53.3018C73.5643 53.2446 73.6261 53.1091 73.6885 52.9794C73.7709 52.8071 73.8549 52.6269 74.0299 52.5442C74.2027 52.4616 74.4158 52.4969 74.6201 52.533C74.7771 52.5602 74.9386 52.5869 75.0454 52.5514C75.1479 52.5163 75.2491 52.4001 75.3443 52.2904C75.4753 52.1404 75.6079 51.9845 75.8025 51.9443C75.9928 51.9045 76.1839 51.9863 76.3682 52.0669C76.511 52.1283 76.6585 52.1931 76.7721 52.182C76.8858 52.171 77.018 52.0788 77.1462 51.991C77.3115 51.8763 77.4852 51.757 77.6776 51.7614C77.8765 51.7652 78.0387 51.8904 78.1962 52.0122C78.3132 52.1032 78.4325 52.1959 78.5399 52.2106C78.6516 52.2248 78.8048 52.1674 78.9515 52.1105C79.1449 52.0356 79.3471 51.9599 79.5327 52.0075C79.7206 52.0568 79.8397 52.2152 79.9518 52.3685C80.0358 52.484 80.1246 52.6028 80.2257 52.6432C80.3267 52.6836 80.4922 52.6617 80.649 52.6406C80.858 52.6125 81.0736 52.5837 81.2391 52.6739C81.4045 52.764 81.4707 52.945 81.5341 53.1204C81.5823 53.2529 81.6309 53.3892 81.7163 53.4504C81.8017 53.5117 81.9642 53.5267 82.1224 53.5422C82.3317 53.5624 82.5478 53.5838 82.6813 53.708C82.8147 53.8322 82.8245 54.0225 82.8336 54.2071C82.8407 54.3475 82.8482 54.4916 82.9132 54.5703C82.976 54.6492 83.1288 54.7 83.275 54.7514C83.4692 54.8195 83.6723 54.8885 83.7621 55.0401C83.8517 55.1899 83.806 55.3779 83.7596 55.5582C83.7246 55.6969 83.69 55.8394 83.7277 55.9323C83.7651 56.0214 83.8948 56.1073 84.0174 56.1881C84.1849 56.2993 84.3591 56.4118 84.4 56.5817C84.4404 56.7478 84.3423 56.9177 84.2458 57.0817C84.1721 57.2087 84.0945 57.3399 84.1042 57.4395C84.1139 57.539 84.2154 57.6527 84.3122 57.7631C84.4386 57.9053 84.5701 58.0548 84.5601 58.2239C84.5507 58.3987 84.4039 58.5444 84.261 58.6859C84.1543 58.791 84.0435 58.8984 84.0262 58.9928C84.0071 59.0913 84.0687 59.2244 84.1298 59.3537C84.2102 59.5217 84.2913 59.6974 84.2323 59.8616C84.1713 60.0279 83.9878 60.1366 83.8102 60.2389C83.6765 60.3157 83.5388 60.3968 83.4902 60.4865C83.4416 60.5763 83.4621 60.7192 83.4823 60.8583C83.509 61.0412 83.5362 61.2298 83.4293 61.3774C83.3223 61.5251 83.1145 61.5878 82.9129 61.6481C82.7608 61.6938 82.6042 61.74 82.5323 61.8166C82.4603 61.8932 82.439 62.0363 82.4173 62.1756C82.3889 62.36 82.359 62.5503 82.2141 62.6707C82.069 62.7892 81.8521 62.8046 81.6415 62.8174C81.4814 62.8272 81.317 62.8375 81.2257 62.8966C81.1342 62.9538 81.0724 63.0893 81.01 63.2191C80.9275 63.3913 80.8436 63.5715 80.6686 63.6543C80.4957 63.7368 80.2827 63.7016 80.0784 63.6654C79.9213 63.6383 79.7621 63.6113 79.653 63.647C79.5506 63.6821 79.4494 63.7983 79.3542 63.9081C79.2232 64.058 79.0906 64.2139 78.8938 64.2544C78.7059 64.2959 78.5124 64.2124 78.3281 64.1318C78.1853 64.0704 78.0378 64.0055 77.9241 64.0166C77.8105 64.0277 77.6783 64.1198 77.5501 64.2077C77.4029 64.3051 77.248 64.413 77.0754 64.4298ZM76.0663 63.7882C76.11 63.7839 76.1541 63.7835 76.1988 63.7888C76.3686 63.8109 76.5142 63.9242 76.6527 64.0324C76.7794 64.1321 76.913 64.235 77.0323 64.2369C77.147 64.2373 77.2856 64.1426 77.422 64.0482C77.575 63.9425 77.7343 63.8342 77.9113 63.8169C78.0883 63.7996 78.2657 63.877 78.436 63.9493C78.5857 64.0139 78.7424 64.0817 78.8549 64.0592C78.9716 64.0342 79.0806 63.9077 79.1878 63.7852C79.3028 63.6522 79.4238 63.5129 79.5861 63.4584C79.7526 63.4016 79.9456 63.4349 80.1319 63.467C80.2979 63.4953 80.4706 63.5248 80.574 63.4761C80.6793 63.4252 80.7489 63.2793 80.8147 63.1396C80.8878 62.9837 80.9626 62.8237 81.106 62.7324C81.2493 62.6412 81.4465 62.6277 81.6374 62.6169C81.8084 62.606 81.986 62.5944 82.0718 62.5242C82.1596 62.4519 82.182 62.2971 82.205 62.148C82.2306 61.9813 82.2581 61.8105 82.3699 61.6894C82.4816 61.5684 82.6704 61.5133 82.8526 61.4588C83.0155 61.4101 83.1848 61.3588 83.2491 61.2714C83.3111 61.1841 83.2895 61.0298 83.2683 60.8811C83.2434 60.7154 83.22 60.5438 83.2945 60.4032C83.3691 60.2626 83.5341 60.1673 83.6949 60.0743C83.8411 59.9905 83.9914 59.9024 84.0258 59.8025C84.0603 59.7044 83.9935 59.5622 83.9294 59.4254C83.8571 59.2721 83.7821 59.1133 83.8134 58.9595C83.8429 58.8098 83.9758 58.6789 84.1026 58.5545C84.2195 58.4407 84.3401 58.3207 84.3453 58.2159C84.3509 58.1148 84.2445 57.9958 84.1404 57.8784C84.0238 57.7468 83.9046 57.6096 83.8894 57.4546C83.8743 57.2996 83.967 57.1417 84.0537 56.9903C84.1312 56.8571 84.2125 56.7178 84.1897 56.6196C84.1643 56.5177 84.0229 56.4252 83.8861 56.3342C83.7376 56.2367 83.5819 56.134 83.524 55.9928C83.4636 55.8479 83.5065 55.6776 83.5479 55.5132C83.5843 55.3666 83.6224 55.2141 83.5695 55.1246C83.5143 55.0334 83.3499 54.976 83.1924 54.9218C83.0166 54.8617 82.8363 54.8 82.736 54.6765C82.6357 54.5529 82.6255 54.38 82.618 54.2127C82.61 54.0627 82.6014 53.9071 82.5236 53.8335C82.4437 53.7601 82.2677 53.7425 82.0984 53.7262C81.9091 53.7079 81.7153 53.6882 81.5802 53.5932C81.4474 53.4979 81.3873 53.3337 81.3299 53.1751C81.2785 53.0333 81.2244 52.8859 81.1265 52.8317C81.0287 52.7794 80.8523 52.8024 80.6824 52.8248C80.4928 52.849 80.2969 52.8759 80.1386 52.814C79.9804 52.7522 79.876 52.6097 79.7742 52.4708C79.6825 52.3445 79.586 52.2148 79.473 52.1872C79.3622 52.1594 79.1984 52.2217 79.041 52.2815C78.8644 52.349 78.6815 52.419 78.5071 52.3954C78.3373 52.3733 78.1917 52.26 78.0532 52.1518C77.9265 52.0521 77.7929 51.9492 77.6736 51.9473C77.5587 51.945 77.4203 52.0415 77.2839 52.136C77.131 52.2417 76.9718 52.3519 76.7948 52.3692C76.6178 52.3865 76.4404 52.3091 76.2699 52.2349C76.1202 52.1703 75.9635 52.1025 75.851 52.125C75.7343 52.1499 75.6253 52.2765 75.5181 52.399C75.4031 52.532 75.2822 52.6713 75.1198 52.7258C74.9533 52.7826 74.7603 52.7492 74.574 52.7172C74.408 52.6889 74.2353 52.6594 74.1319 52.7081C74.0266 52.759 73.957 52.9049 73.8912 53.0446C73.8181 53.2005 73.7433 53.3605 73.6 53.4517C73.4566 53.543 73.2592 53.5545 73.0685 53.5673C72.8975 53.5782 72.7199 53.5897 72.6341 53.6599C72.5485 53.7321 72.5239 53.8871 72.5009 54.0362C72.4753 54.2029 72.4478 54.3737 72.3361 54.4947C72.2243 54.6158 72.0356 54.6709 71.8533 54.7254C71.6904 54.7741 71.5211 54.8254 71.4569 54.9128C71.3948 55 71.4164 55.1544 71.4376 55.3031C71.4604 55.469 71.4859 55.6404 71.4114 55.781C71.3368 55.9216 71.1718 56.0169 71.011 56.1098C70.8648 56.1937 70.7145 56.2817 70.6801 56.3817C70.6456 56.4798 70.7124 56.622 70.7765 56.7588C70.8488 56.9121 70.9239 57.0709 70.8925 57.2247C70.863 57.3744 70.7302 57.5052 70.6033 57.6297C70.4864 57.7435 70.3658 57.8635 70.3606 57.9683C70.355 58.0693 70.4614 58.1884 70.5656 58.3058C70.6821 58.4374 70.8014 58.5746 70.8165 58.7296C70.8316 58.8846 70.7389 59.0424 70.6522 59.1939C70.5747 59.327 70.4934 59.4664 70.5162 59.5646C70.5416 59.6665 70.6832 59.7609 70.8198 59.8499C70.9684 59.9475 71.124 60.0502 71.1819 60.1914C71.2423 60.3362 71.1994 60.5066 71.158 60.671C71.1216 60.8175 71.0835 60.97 71.1364 61.0596C71.1916 61.1508 71.356 61.2082 71.5136 61.2624C71.6893 61.3225 71.8696 61.3842 71.9699 61.5077C72.0702 61.6312 72.0804 61.8041 72.0879 61.9715C72.0959 62.1214 72.1045 62.2771 72.1823 62.3507C72.2624 62.426 72.4382 62.4417 72.6075 62.458C72.7968 62.4762 72.9907 62.496 73.1257 62.591C73.2607 62.6861 73.3187 62.8504 73.376 63.0091C73.4274 63.1509 73.4815 63.2983 73.5794 63.3525C73.6772 63.4048 73.8536 63.3818 74.0235 63.3594C74.2129 63.3332 74.409 63.3083 74.5673 63.3702C74.7255 63.432 74.8299 63.5745 74.9317 63.7133C75.0234 63.8396 75.1199 63.9694 75.2329 63.997C75.3437 64.0248 75.5053 63.9627 75.665 63.9027C75.7969 63.8531 75.933 63.8012 76.0663 63.7882Z" fill="#4A5161"/>
    <path d="M73.877 60.3185C73.7939 60.3266 73.709 60.2924 73.6669 60.2231C73.4738 59.9173 73.3226 59.5881 73.2185 59.2447C72.5816 57.1253 73.8801 54.9447 76.1108 54.3813C78.3414 53.8179 80.6733 55.0841 81.3102 57.2034C81.3464 57.3255 81.3784 57.4499 81.4014 57.5732C81.4226 57.6774 81.342 57.7781 81.2227 57.7993C81.1011 57.8189 80.9909 57.7524 80.9697 57.6482C80.9478 57.5363 80.9191 57.4232 80.886 57.3105C80.311 55.3957 78.22 54.2471 76.2219 54.7511C74.2259 55.2549 73.0676 57.2228 73.6427 59.1376C73.7372 59.4511 73.8747 59.7526 74.0495 60.0293C74.1071 60.1222 74.0701 60.2398 73.9627 60.2928C73.9378 60.3087 73.9076 60.3155 73.877 60.3185Z" fill="white"/>
    <path d="M73.8866 60.4145C73.7576 60.4271 73.6331 60.3716 73.5706 60.2734C73.3724 59.9604 73.2182 59.6238 73.1134 59.2727C72.7994 58.2251 72.9329 57.1281 73.4943 56.1884C74.0553 55.2449 74.9756 54.5696 76.0846 54.2914C77.1935 54.0113 78.3594 54.1585 79.3682 54.7074C80.3747 55.2546 81.1023 56.1323 81.4162 57.1799C81.4526 57.3039 81.485 57.4321 81.5104 57.5572C81.541 57.7126 81.4213 57.8653 81.2412 57.8964C81.0568 57.9279 80.8924 57.8261 80.8616 57.6687C80.8401 57.5607 80.8138 57.4493 80.7811 57.3404C80.2222 55.4781 78.1892 54.3586 76.2513 54.8471C74.3134 55.3356 73.1918 57.2497 73.7509 59.1139C73.8427 59.4218 73.9771 59.714 74.1491 59.9851C74.2354 60.1235 74.1776 60.2992 74.02 60.3803C73.9776 60.3979 73.9325 60.4101 73.8866 60.4145ZM76.7733 54.3634C76.5614 54.3841 76.3487 54.4203 76.1399 54.4735C75.0913 54.7381 74.2204 55.3775 73.6877 56.2719C73.1532 57.1704 73.0258 58.2165 73.3263 59.2171C73.4275 59.5531 73.5738 59.877 73.764 60.1753C73.7925 60.2189 73.8605 60.2374 73.9129 60.2091C73.9654 60.1827 73.9861 60.1227 73.9552 60.0774C73.7753 59.7936 73.6348 59.4846 73.5373 59.1637C72.9463 57.1983 74.1391 55.1768 76.1931 54.6576C78.2474 54.1404 80.4007 55.3177 80.9895 57.2833C81.0249 57.3978 81.0518 57.5149 81.0739 57.6287C81.0835 57.6819 81.1395 57.7131 81.2027 57.705C81.2309 57.7003 81.256 57.6863 81.2715 57.6635C81.2893 57.6425 81.2956 57.6167 81.291 57.5921C81.2683 57.4726 81.2365 57.3501 81.2007 57.2318C80.9 56.2294 80.2049 55.3909 79.2451 54.8701C78.4831 54.4536 77.6234 54.2805 76.7733 54.3634Z" fill="#263238"/>
    <path d="M91.2192 86.4383C91.2192 86.4383 99.9124 83.6659 102.455 81.0993C102.455 81.0993 102.008 84.8141 103.652 86.586C105.296 88.3578 111.603 92.8554 112.724 93.776C113.844 94.6966 115.986 96.9107 116.561 96.7909C117.138 96.6708 118.516 94.2178 118.963 93.5288C119.41 92.8418 120.257 92.3495 120.298 91.2519C120.339 90.1524 119.603 90.1604 119.343 90.5084C119.084 90.8564 117.675 92.0004 116.754 92.3473C115.832 92.6941 114.837 93.0927 114.837 93.0927C114.837 93.0927 112.274 90.5718 110.215 87.5516C108.155 84.5315 105.753 78.716 105.053 77.5592C104.351 76.4046 103.44 76.107 102.347 76.2136C101.254 76.3202 97.7578 76.6612 91.8689 79.6179C85.9799 82.5747 86.4225 84.8502 87.087 85.624C87.7495 86.3999 89.2757 86.9602 91.2192 86.4383Z" fill="#4592D0"/>
    <path d="M116.551 96.8921C116.096 96.9364 115.155 96.1123 113.784 94.8606C113.363 94.4747 112.963 94.1098 112.647 93.8509C112.33 93.5919 111.6 93.0449 110.674 92.3526C108.316 90.5905 104.751 87.9277 103.568 86.6519C102.158 85.1335 102.252 82.2762 102.32 81.3711C99.5566 83.8646 91.5989 86.4203 91.2545 86.5312C91.2523 86.5314 91.2502 86.5316 91.2482 86.5337C89.2679 87.0631 87.6876 86.4907 86.9983 85.6884C86.8266 85.4888 86.4522 84.9302 86.6709 84.0509C86.9215 83.0468 88.0187 81.4482 91.8169 79.5397C97.7268 76.5712 101.197 76.2327 102.338 76.1215C103.603 75.9981 104.498 76.4422 105.15 77.5167C105.387 77.9052 105.808 78.807 106.343 79.949C107.438 82.2902 108.94 85.4943 110.309 87.5054C112.179 90.2485 114.493 92.6042 114.867 92.9793C115.116 92.8797 115.944 92.5516 116.712 92.2622C117.617 91.9209 119.01 90.7821 119.252 90.459C119.401 90.261 119.667 90.1655 119.902 90.2256C120.065 90.2677 120.438 90.4515 120.409 91.2563C120.379 92.0592 119.945 92.542 119.525 93.0062C119.352 93.1989 119.188 93.379 119.058 93.5792C118.974 93.7092 118.854 93.9044 118.713 94.1346C117.863 95.5294 117.059 96.7884 116.583 96.887C116.572 96.89 116.561 96.891 116.551 96.8921ZM102.446 81.0053C102.463 81.0036 102.483 81.0055 102.499 81.0116C102.543 81.0267 102.569 81.0667 102.564 81.1078C102.559 81.145 102.141 84.8047 103.736 86.5253C104.908 87.7888 108.463 90.4447 110.816 92.2035C111.744 92.8974 112.479 93.446 112.798 93.7086C113.117 93.9711 113.519 94.3377 113.943 94.7253C114.837 95.5405 116.19 96.7727 116.538 96.7001C116.956 96.613 118.013 94.8791 118.521 94.047C118.664 93.8147 118.784 93.6175 118.868 93.4876C119.006 93.2751 119.184 93.08 119.353 92.8916C119.751 92.4508 120.161 91.9954 120.188 91.2566C120.204 90.7893 120.072 90.4737 119.835 90.4119C119.694 90.3754 119.528 90.4379 119.434 90.563C119.175 90.9091 117.751 92.0778 116.796 92.4395C115.885 92.7834 114.891 93.1798 114.881 93.1847C114.836 93.2026 114.787 93.1939 114.755 93.1622C114.728 93.1378 112.162 90.5998 110.121 87.6069C108.741 85.5851 107.238 82.3715 106.138 80.0268C105.606 78.8904 105.185 77.9924 104.954 77.6111C104.339 76.5987 103.539 76.1976 102.354 76.3131C101.225 76.4233 97.7891 76.7583 91.9192 79.7055C88.1923 81.5762 87.1228 83.12 86.8817 84.0864C86.6818 84.8865 87.0176 85.389 87.1719 85.5691C87.8165 86.3197 89.3046 86.8508 91.1838 86.3487C91.3805 86.2851 99.8914 83.5422 102.372 81.0395C102.392 81.0202 102.42 81.0078 102.446 81.0053ZM91.2192 86.44L91.2213 86.4398L91.2192 86.44Z" fill="#263238"/>
    <path d="M120.299 91.2536C120.34 90.1541 119.604 90.1621 119.344 90.5101C119.085 90.8581 117.676 92.0021 116.755 92.349C115.833 92.6958 114.837 93.0944 114.837 93.0944C114.837 93.0944 112.841 91.1308 110.957 88.594C110.283 89.7322 109.343 90.3725 108.662 90.7114C110.484 92.0911 112.192 93.3389 112.724 93.7777C113.844 94.6984 115.986 96.9125 116.562 96.7926C117.139 96.6725 118.517 94.2195 118.964 93.5306C119.413 92.8433 120.261 92.3529 120.299 91.2536Z" fill="#FEDEA5"/>
    <path d="M116.551 96.8921C116.096 96.9364 115.155 96.1123 113.785 94.8606C113.363 94.4746 112.964 94.1098 112.647 93.8508C112.331 93.5918 111.598 93.0431 110.669 92.3491C110.041 91.879 109.323 91.3443 108.589 90.786C108.563 90.7654 108.549 90.7358 108.552 90.7046C108.556 90.6733 108.577 90.6461 108.609 90.6295C109.267 90.3005 110.195 89.6749 110.86 88.5531C110.879 88.5223 110.914 88.5033 110.951 88.4997C110.991 88.4978 111.028 88.5135 111.048 88.5424C112.74 90.8179 114.54 92.6518 114.865 92.9795C115.114 92.8799 115.942 92.5517 116.71 92.2623C117.615 91.921 119.008 90.7823 119.25 90.4592C119.399 90.2612 119.665 90.1656 119.9 90.2257C120.063 90.2678 120.436 90.4517 120.407 91.2565C120.377 92.0593 119.943 92.5422 119.523 93.0063C119.35 93.199 119.186 93.3792 119.056 93.5794C118.972 93.7093 118.852 93.9046 118.711 94.1347C117.861 95.5296 117.057 96.7886 116.581 96.8872C116.573 96.8899 116.562 96.891 116.551 96.8921ZM108.85 90.7258C109.545 91.2511 110.219 91.7554 110.816 92.1996C111.746 92.8953 112.482 93.4438 112.801 93.7064C113.12 93.969 113.522 94.3355 113.946 94.7231C114.839 95.5383 116.193 96.7705 116.541 96.6979C116.958 96.6108 118.015 94.8769 118.523 94.0448C118.666 93.8125 118.786 93.6154 118.87 93.4854C119.008 93.2729 119.186 93.0778 119.355 92.8894C119.753 92.4486 120.163 91.9932 120.19 91.2544C120.207 90.7871 120.074 90.4716 119.837 90.4097C119.696 90.3732 119.53 90.4357 119.437 90.5608C119.177 90.9069 117.753 92.0756 116.798 92.4374C115.887 92.7812 114.893 93.1777 114.883 93.1825C114.838 93.2004 114.789 93.1917 114.757 93.16C114.738 93.1407 112.806 91.2326 110.968 88.7821C110.327 89.7856 109.492 90.3849 108.85 90.7258Z" fill="#263238"/>
    <path d="M77.6911 63.1373C77.6911 63.1373 78.8191 64.7721 78.9808 65.3225C79.1426 65.8729 78.4271 66.273 77.6934 66.4857C76.9596 66.6983 75.7496 66.4395 74.69 67.7215C73.6303 69.0035 71.2467 74.3776 70.8958 75.2137C70.5471 76.0496 71.0371 76.6626 72.1924 76.3606C73.3476 76.0586 76.1392 72.1074 76.1392 72.1074C76.1392 72.1074 80.4392 75.8867 81.0064 76.726C81.5738 77.5672 81.5578 79.0778 81.6034 80.6308C81.6468 82.1839 81.5988 84.4512 83.3762 86.1173C85.1536 87.7835 88.5649 87.9705 91.2171 86.4366C93.8674 84.9048 96.4387 80.2563 94.9304 78.6122C93.4241 76.966 90.3424 76.3816 89.2714 74.7876C88.2004 73.1937 88.4243 72.2328 88.2558 70.5044C88.0872 68.7761 87.4328 66.5908 87.4328 66.5908C87.4328 66.5908 91.9288 65.1862 97.1837 64.0302C99.0109 63.6279 97.676 61.907 96.5731 61.6378C95.1899 61.2993 89.3183 62.4207 87.6903 62.4442C85.3398 62.4803 84.1922 63.0192 83.6909 63.3985C83.1896 63.7778 82.5424 64.3124 81.95 64.3238C81.3577 64.3352 80.4733 61.8728 80.4733 61.8728C80.4733 61.8728 79.0378 63.1471 77.6911 63.1373Z" fill="#F37630"/>
    <path d="M88.0702 87.5372C86.2367 87.716 84.4403 87.2575 83.2965 86.1846C81.5896 84.585 81.5387 82.4568 81.5017 80.9011L81.4848 80.2303C81.4505 78.8386 81.417 77.5222 80.9141 76.7771C80.4083 76.0245 76.8004 72.8269 76.1606 72.2613C75.6984 72.9054 73.3118 76.1679 72.2232 76.4518C71.6486 76.6006 71.182 76.5437 70.9124 76.2898C70.6477 76.0413 70.6039 75.6379 70.7954 75.1806C71.1011 74.4474 73.5213 68.9731 74.6026 67.6639C75.4234 66.6699 76.3248 66.5704 77.0473 66.4903C77.2743 66.4662 77.486 66.4417 77.662 66.3917C77.9902 66.2959 79.0475 65.9397 78.8749 65.3459C78.7195 64.8162 77.6089 63.201 77.5963 63.1848C77.5758 63.1559 77.5765 63.1172 77.5955 63.0863C77.6168 63.0553 77.6524 63.0363 77.6943 63.0361C78.9791 63.0441 80.3837 61.8154 80.3981 61.8044C80.4245 61.7806 80.4654 61.7708 80.5013 61.7769C80.5374 61.785 80.5682 61.8071 80.5802 61.8388C81.0037 63.0148 81.6339 64.2286 81.9534 64.2245C82.4534 64.2163 83.0304 63.7755 83.4946 63.423L83.6239 63.3235C84.0863 62.975 85.2286 62.3825 87.6937 62.3449C88.3039 62.3357 89.558 62.165 90.886 61.9833C93.1548 61.6751 95.7262 61.3258 96.6075 61.5393C97.3487 61.7202 98.2278 62.5445 98.197 63.247C98.1844 63.5477 98.0024 63.9442 97.2097 64.1181C92.4408 65.1667 88.2494 66.4373 87.5661 66.6469C87.6892 67.0716 88.2181 68.9657 88.3666 70.4893C88.4036 70.8683 88.421 71.2047 88.4394 71.5295C88.5006 72.677 88.5441 73.5075 89.3696 74.7332C89.9142 75.5438 90.9953 76.0876 92.1391 76.6639C93.1949 77.1966 94.2853 77.7453 95.0187 78.5471C95.4581 79.026 95.5932 79.7779 95.4095 80.7214C94.9979 82.8348 93.1445 85.4347 91.2774 86.5134C90.286 87.0931 89.1717 87.4298 88.0702 87.5372ZM76.132 72.0129C76.1648 72.0097 76.1967 72.0202 76.2206 72.0391C76.3967 72.1939 80.5356 75.8363 81.103 76.6775C81.6344 77.4662 81.6679 78.8058 81.7026 80.2245L81.7195 80.8953C81.7557 82.4202 81.8069 84.5058 83.458 86.0529C85.2184 87.7033 88.6025 87.837 91.1588 86.3607C92.9508 85.3261 94.7962 82.7347 95.1914 80.7021C95.3629 79.8139 95.2439 79.1145 94.844 78.6782C94.1354 77.9048 93.0612 77.3642 92.024 76.8413C90.8547 76.252 89.7502 75.695 89.1773 74.8428C88.3258 73.5771 88.2784 72.6833 88.2187 71.551C88.2004 71.2282 88.1833 70.8936 88.1467 70.5185C87.9807 68.8169 87.334 66.6425 87.3276 66.6219C87.314 66.5729 87.3443 66.5217 87.4 66.5047C87.445 66.4906 91.9608 65.086 97.1616 63.9412C97.6887 63.826 97.9639 63.5943 97.9793 63.2547C98.0056 62.6415 97.1981 61.8952 96.5449 61.7348C95.7087 61.5304 93.0502 61.8921 90.9144 62.1835C89.521 62.3735 88.3169 62.5373 87.6912 62.5461C85.2945 62.5828 84.2022 63.1453 83.7623 63.4761L83.6328 63.5738C83.1421 63.9482 82.5322 64.4134 81.9508 64.4238C81.3672 64.4343 80.6552 62.6759 80.4222 62.0513C80.0562 62.3478 78.9763 63.1507 77.8786 63.2288C78.1572 63.6421 78.9482 64.8306 79.0842 65.2985C79.2334 65.8095 78.7263 66.2879 77.7222 66.579C77.5269 66.6348 77.3021 66.6606 77.0665 66.6874C76.3854 66.7616 75.5386 66.8558 74.775 67.7804C73.7075 69.0728 71.3022 74.5186 70.9961 75.2479C70.835 75.6327 70.861 75.9664 71.0696 76.1605C71.2832 76.3599 71.6709 76.3994 72.1616 76.2723C73.0438 76.0433 75.0865 73.4172 76.0441 72.0621C76.0678 72.0327 76.097 72.0164 76.132 72.0129Z" fill="#263238"/>
    <path d="M90.2035 62.1774C90.0532 62.1978 89.9052 62.2181 89.7613 62.236C89.8099 63.0505 90.0604 64.3748 91.0486 65.5498C91.1948 65.5104 91.3474 65.4685 91.4999 65.4265C90.4963 64.2975 90.2516 62.9649 90.2035 62.1774Z" fill="#263238"/>
    <path d="M88.8704 74.0939C88.8102 73.9742 88.7567 73.8557 88.7102 73.7405C85.4664 74.706 82.852 76.8546 81.4739 78.1735C81.4967 78.3393 81.5133 78.5097 81.5284 78.6879C82.7833 77.439 85.4819 75.091 88.8704 74.0939Z" fill="#263238"/>
    <path d="M80.5458 76.1908C80.6539 76.3039 80.7501 76.4085 80.8272 76.4976C81.7297 75.5497 84.0547 73.4874 88.3539 71.9435C88.3454 71.811 88.3385 71.6726 88.3317 71.5341C83.9158 73.0816 81.5266 75.1638 80.5458 76.1908Z" fill="#263238"/>
    <path d="M76.6744 70.128C77.4517 69.9769 81.1445 69.1143 86.2822 65.512C86.7794 66.1997 87.2274 66.6758 87.2668 66.7183C87.3136 66.7679 87.3865 66.7917 87.4564 66.7848C87.4674 66.7838 87.4803 66.7806 87.491 66.7776C87.4576 66.6611 87.4378 66.5934 87.4378 66.5934C87.4378 66.5934 87.5106 66.5709 87.6455 66.5287C87.6367 66.5064 87.6259 66.4862 87.6085 66.4667C87.5888 66.4454 85.7236 64.4671 85.3833 62.6975C85.2322 62.7316 85.088 62.7688 84.9573 62.8086C85.0285 63.1533 85.1486 63.5029 85.3008 63.8417C81.448 66.8646 77.44 67.7984 76.3526 68.005C76.1948 67.518 76.0088 67.1265 75.8537 66.8479C75.7243 66.9011 75.5937 66.9641 75.4625 67.0445C75.5944 67.2886 75.7532 67.6268 75.893 68.0421C75.6064 67.7957 75.2682 67.6084 74.9276 67.4638C74.8493 67.5429 74.7692 67.6261 74.6923 67.7206C74.6765 67.7395 74.6609 67.7603 74.6451 67.7793C75.2834 68.0358 75.9178 68.4551 76.156 69.1332C76.2098 69.4816 76.2379 69.8595 76.2264 70.2625C75.8693 69.7679 75.1809 69.1105 73.954 68.8592C73.89 68.9717 73.8243 69.0901 73.7588 69.2105C75.6337 69.5455 76.1145 70.9014 76.1422 70.9818C76.148 70.9967 76.1559 71.0094 76.1659 71.022C76.1358 71.2336 76.095 71.4482 76.0394 71.67C75.5919 71.221 74.6287 70.4609 73.1709 70.3306C73.11 70.4525 73.0469 70.5746 72.9862 70.6983C74.7138 70.7907 75.6832 71.8632 75.907 72.1447C75.8588 72.306 75.8145 72.4629 75.7701 72.618C76.0021 72.3055 76.1435 72.1043 76.1435 72.1043C76.1435 72.1043 76.2087 72.1617 76.3221 72.2608C76.3338 72.2229 76.3436 72.1872 76.3553 72.1493C76.5782 71.4262 76.6686 70.7469 76.6744 70.128ZM85.4736 64.2113C85.6506 64.5554 85.8502 64.8837 86.0539 65.1846C81.1689 68.6173 77.5379 69.5491 76.6647 69.7348C76.6558 69.5521 76.6386 69.376 76.6176 69.2061C76.6219 69.1825 76.6215 69.1555 76.6147 69.131C76.6116 69.1217 76.6084 69.1123 76.6051 69.101C76.5668 68.8439 76.5167 68.6015 76.4573 68.3773C77.6221 68.1497 81.6173 67.1978 85.4736 64.2113Z" fill="#263238"/>
    <path d="M90.1637 75.662C90.0378 75.57 89.9185 75.4773 89.8073 75.378C86.0973 76.6982 83.2792 78.884 81.6005 80.4466C81.6021 80.5083 81.6037 80.57 81.6053 80.6317C81.6078 80.7474 81.6108 80.8688 81.6138 80.9902C83.2371 79.4252 86.1888 77.0255 90.1637 75.662Z" fill="#263238"/>
    <path d="M88.2121 70.1026C88.1954 69.9767 88.1764 69.8491 88.1573 69.7215C82.575 70.5287 80.056 73.3152 79.0933 74.7771C79.1977 74.8752 79.2998 74.9715 79.4016 75.0659C80.2518 73.7174 82.6475 70.91 88.2121 70.1026Z" fill="#263238"/>
    <path d="M93.1091 61.7934C92.9587 61.8119 92.8083 61.8305 92.6557 61.8492C92.6061 62.6752 92.7177 63.7966 93.3652 64.9392C93.5094 64.9019 93.6559 64.8664 93.8045 64.8287C93.1524 63.7079 93.0567 62.5907 93.1091 61.7934Z" fill="#263238"/>
    <path d="M87.1185 62.4667C87.3751 63.4232 87.8953 64.8661 88.8969 66.1557C89.0363 66.1151 89.1843 66.0717 89.3389 66.0276C88.3614 64.8052 87.8381 63.3974 87.5711 62.4477C87.4172 62.453 87.2655 62.4581 87.1185 62.4667Z" fill="#263238"/>
    <path d="M87.8164 68.0369C87.7858 67.9046 87.7538 67.7802 87.7246 67.6613C81.4392 68.9506 78.4809 71.6216 77.272 73.1152C77.3737 73.2077 77.4799 73.3017 77.5889 73.4012C78.733 71.9892 81.6335 69.3142 87.8164 68.0369Z" fill="#263238"/>
    <path d="M91.2195 86.4382C93.4125 85.1713 95.5495 81.7708 95.3678 79.7037C95.3144 79.3147 95.1753 78.9747 94.9355 78.7102C94.7328 78.4865 94.5097 78.2571 94.275 78.023C93.4794 77.4204 92.4818 76.9632 91.5618 76.4887C86.896 78.5494 83.3465 82.1263 81.89 83.5243C82.1197 84.4313 82.5481 85.3401 83.3785 86.119C85.156 87.7851 88.5673 87.9722 91.2195 86.4382Z" fill="#4592D0"/>
    <path d="M88.0701 87.5373C86.2366 87.7162 84.4402 87.2576 83.2964 86.1847C82.5486 85.4847 82.0519 84.6212 81.7816 83.5462C81.7742 83.516 81.7841 83.4822 81.8083 83.4585L82.0806 83.1963C83.7097 81.623 87.097 78.3518 91.5134 76.4023C91.5472 76.3874 91.5848 76.3877 91.6174 76.4057C91.787 76.4935 91.9586 76.5792 92.1326 76.6666C92.8984 77.0537 93.6919 77.4535 94.347 77.95C94.6158 78.2175 94.834 78.4416 95.0198 78.6495C95.2621 78.9177 95.4154 79.2679 95.4742 79.6892C95.657 81.7678 93.5374 85.211 91.2757 86.5194C90.2859 87.0932 89.1715 87.4299 88.0701 87.5373ZM82.0091 83.5491C82.2738 84.5667 82.7486 85.386 83.4599 86.0509C85.2203 87.7013 88.6044 87.835 91.1607 86.3587C93.3682 85.0826 95.4349 81.7296 95.258 79.7122C95.2052 79.329 95.0662 79.0121 94.8485 78.7706C94.6631 78.5665 94.4494 78.3438 94.1927 78.0868C93.5615 77.6092 92.7795 77.2141 92.0208 76.832C91.8652 76.7525 91.7099 76.6749 91.5565 76.5952C87.2049 78.5306 83.856 81.7652 82.245 83.3213L82.0091 83.5491Z" fill="#4592D0"/>
    <path d="M74.0883 59.5871C73.9947 59.6 73.9044 59.6243 73.8176 59.6618C73.1161 59.9562 72.9227 60.9142 73.3866 61.8022C73.8483 62.6904 74.791 63.1724 75.4927 62.8798C75.641 62.817 75.7645 62.7257 75.8659 62.6115L74.0883 59.5871Z" fill="white"/>
    <path d="M75.1767 63.0562C74.8948 63.0837 74.5908 63.0206 74.2913 62.8682C73.8757 62.6556 73.5182 62.2924 73.2847 61.8437C73.0514 61.397 72.9716 60.9178 73.056 60.4942C73.1435 60.0567 73.3985 59.7304 73.7715 59.5742C73.8669 59.534 73.9679 59.5067 74.0724 59.4927C74.1183 59.4882 74.1641 59.505 74.1853 59.5416L75.9604 62.5643C75.9791 62.5973 75.9743 62.6383 75.9485 62.6679C75.8311 62.7992 75.6931 62.8996 75.5362 62.9651C75.4218 63.013 75.3013 63.0441 75.1767 63.0562ZM74.0283 59.696C73.97 59.7094 73.9165 59.7262 73.8636 59.7488C73.5584 59.8771 73.3492 60.1525 73.275 60.523C73.1978 60.9074 73.2739 61.3482 73.4883 61.7601C73.7028 62.172 74.0311 62.5071 74.4095 62.7001C74.7763 62.8866 75.1458 62.9201 75.4488 62.792C75.5547 62.7469 75.6522 62.6833 75.7367 62.5997L74.0283 59.696Z" fill="#263238"/>
    <path d="M74.0882 59.5874C73.9946 59.6004 73.9043 59.6246 73.8175 59.6621C73.7369 59.695 73.6639 59.7389 73.5983 59.7897L75.45 62.8958C75.4649 62.8905 75.48 62.8871 75.4948 62.8799C75.6431 62.8171 75.7665 62.7258 75.8679 62.6116L74.0882 59.5874Z" fill="white"/>
    <path d="M75.4693 62.9844C75.4234 62.9889 75.3691 62.9748 75.3503 62.94L73.4986 59.8338C73.4748 59.7937 73.4855 59.7443 73.5267 59.7152C73.6049 59.6573 73.6862 59.6088 73.771 59.5735C73.8664 59.5333 73.9674 59.506 74.072 59.492C74.1178 59.4875 74.1636 59.5043 74.1848 59.5408L75.96 62.5636C75.9786 62.5966 75.9738 62.6376 75.948 62.6672C75.8307 62.7984 75.6926 62.8988 75.5358 62.9644C75.523 62.9695 75.5123 62.9725 75.4995 62.9776C75.4888 62.9805 75.4803 62.9833 75.4693 62.9844ZM73.737 59.8125L75.4967 62.7672C75.5871 62.7217 75.6635 62.6679 75.7318 62.5994L74.0256 59.6955C73.9674 59.7089 73.9138 59.7257 73.8609 59.7483C73.8185 59.7659 73.7765 59.7874 73.737 59.8125Z" fill="#263238"/>
    <path d="M80.4858 57.0219C80.5576 56.9666 80.6368 56.9183 80.7237 56.8828C81.4253 56.5883 82.368 57.0702 82.8297 57.9584C83.2935 58.8465 83.1001 59.8044 82.4008 60.0986C82.2525 60.1614 82.0939 60.1865 81.9325 60.183L80.4858 57.0219Z" fill="white"/>
    <path d="M82.0908 60.2734C82.0362 60.2787 81.9811 60.2802 81.9238 60.28C81.8817 60.2783 81.8443 60.2569 81.8276 60.2218L80.381 57.0607C80.3641 57.0237 80.3753 56.9801 80.41 56.9516C80.4898 56.8878 80.5797 56.8365 80.6751 56.7963C81.4297 56.4812 82.4404 56.9816 82.9266 57.9177C83.1599 58.3644 83.2419 58.8434 83.1553 59.2672C83.0678 59.7047 82.815 60.0308 82.442 60.187C82.3339 60.2323 82.2175 60.261 82.0908 60.2734ZM82.0042 60.0867C82.1295 60.0822 82.2462 60.0573 82.3521 60.0122C82.6573 59.8839 82.8665 59.6084 82.9407 59.2379C83.0177 58.8517 82.9418 58.4128 82.7274 58.0009C82.2904 57.1624 81.4091 56.6996 80.7647 56.9692C80.7118 56.9917 80.6614 57.0179 80.6137 57.0496L82.0042 60.0867Z" fill="#263238"/>
    <path d="M82.0908 60.2737C82.0361 60.279 81.9811 60.2805 81.9237 60.2803C81.8816 60.2786 81.8443 60.2572 81.8276 60.2221L80.3809 57.061C80.3641 57.024 80.3753 56.9804 80.41 56.9519C80.4898 56.8881 80.5797 56.8368 80.675 56.7966C80.7598 56.7613 80.8521 56.7349 80.9521 56.7193C81.0042 56.7104 81.0529 56.7346 81.0724 56.7771L82.5403 60.0424C82.5603 60.0888 82.5389 60.1411 82.4881 60.1634C82.465 60.1754 82.4547 60.1822 82.4417 60.1854C82.3338 60.2326 82.2175 60.2613 82.0908 60.2737ZM82.0042 60.087C82.1098 60.0844 82.2072 60.0652 82.2989 60.0331L80.9016 56.9252C80.8542 56.9375 80.8071 56.9518 80.7647 56.9695C80.7117 56.992 80.6613 57.0182 80.6137 57.0499L82.0042 60.087Z" fill="#263238"/>
    <path d="M83.0552 63.8722C82.6973 64.1158 82.3154 64.3172 81.9542 64.3235C81.3619 64.3349 80.4775 61.8725 80.4775 61.8725C80.4775 61.8725 79.0396 63.145 77.6929 63.1353C77.6929 63.1353 78.8209 64.7701 78.9827 65.3205C79.1143 65.7656 78.6694 66.1123 78.1071 66.3411C78.4544 67.0298 79.519 68.58 81.8257 67.8469C83.8416 67.2078 83.476 65.1103 83.0552 63.8722Z" fill="#FEDEA5"/>
    <path d="M80.9897 68.1229C79.1955 68.2979 78.3199 67.0114 78.0028 66.3834C77.9916 66.3594 77.9914 66.3343 78 66.3103C78.0109 66.286 78.0311 66.2667 78.0587 66.2563C78.4194 66.109 79.0045 65.7969 78.8725 65.348C78.7171 64.8182 77.6065 63.203 77.5939 63.1868C77.5735 63.1579 77.5741 63.1192 77.5931 63.0884C77.6144 63.0573 77.65 63.0384 77.6919 63.0382C78.9767 63.0462 80.3814 61.8175 80.3957 61.8064C80.4221 61.7826 80.463 61.7728 80.4989 61.779C80.535 61.787 80.5659 61.8092 80.5778 61.8408C81.0013 63.0168 81.6315 64.2306 81.951 64.2265C82.2306 64.2205 82.5615 64.0839 82.9856 63.7952C83.0145 63.775 83.0515 63.7695 83.0854 63.7778C83.1193 63.786 83.1459 63.8105 83.1555 63.8405C83.5766 65.0824 83.9703 67.2641 81.854 67.9362C81.5462 68.0377 81.2585 68.0967 80.9897 68.1229ZM78.2501 66.3864C78.6298 67.0894 79.663 68.432 81.788 67.7571C83.6604 67.163 83.3742 65.2239 82.9932 64.0321C82.7088 64.2145 82.3289 64.4138 81.9522 64.4196C81.3686 64.4302 80.6566 62.6717 80.4236 62.0472C80.0576 62.3437 78.9777 63.1466 77.88 63.2246C78.1586 63.638 78.9496 64.8265 79.0857 65.2943C79.2078 65.7094 78.91 66.094 78.2501 66.3864Z" fill="#FEDEA5"/>
    <path d="M81.0801 63.2801C80.9214 62.9651 80.7767 62.6353 80.6696 62.3733C80.5867 62.2249 80.5075 62.0684 80.4304 61.9117C80.1877 62.115 78.9048 63.1444 77.6883 63.1355C77.6883 63.1355 78.0689 63.6897 78.4202 64.2602C78.949 64.3439 79.6846 64.3765 80.2298 64.0625C80.5745 63.8646 80.8571 63.5723 81.0801 63.2801Z" fill="#263238"/>
    <path d="M79.4261 64.3975C79.0634 64.4329 78.6984 64.4008 78.4005 64.3545C78.3692 64.3499 78.3409 64.3314 78.3253 64.3078C77.9792 63.7445 77.5988 63.1922 77.5961 63.1867C77.5756 63.1578 77.5762 63.1191 77.5953 63.0883C77.6165 63.0572 77.6522 63.0383 77.6941 63.038C78.8643 63.0476 80.1164 62.0424 80.3571 61.8412C80.3837 61.8193 80.4203 61.8099 80.4562 61.8161C80.4921 61.8222 80.5205 61.8426 80.5343 61.8703C80.6144 62.0364 80.6935 62.191 80.7707 62.3264C80.9096 62.6645 81.0502 62.9754 81.1814 63.2351C81.1975 63.2644 81.1921 63.2997 81.1729 63.3287C80.899 63.6877 80.6035 63.96 80.2944 64.1389C80.0292 64.2923 79.7277 64.3681 79.4261 64.3975ZM78.4953 64.1733C78.9968 64.2481 79.6761 64.2688 80.1733 63.9826C80.4447 63.8248 80.7083 63.5865 80.9534 63.2728C80.7946 62.9559 80.6546 62.6295 80.5647 62.4083C80.5089 62.3114 80.4492 62.1974 80.3888 62.0758C79.9977 62.3863 78.945 63.1518 77.878 63.2269C78.0116 63.4206 78.2596 63.7925 78.4953 64.1733Z" fill="#263238"/>
    <path d="M74.1585 58.9523C74.1585 58.9523 75.1793 61.6835 75.7854 62.3779C76.3916 63.0743 78.399 63.7731 79.3151 63.7785C80.2311 63.7838 80.7757 62.7395 81.2315 61.8932C81.6872 61.0468 81.7829 60.3767 81.4707 59.3695C81.1563 58.3626 80.3041 56.7956 79.6843 55.9595C79.2828 55.4171 77.597 54.9844 76.1341 55.4575C74.6712 55.9306 73.7461 57.4835 74.1585 58.9523Z" fill="#FEDEA5"/>
    <path d="M79.4455 63.8701C79.4018 63.8744 79.3579 63.8767 79.3114 63.8755C78.3203 63.8697 76.3147 63.1437 75.6988 62.4386C75.0878 61.7388 74.0977 59.0974 74.0559 58.9855C74.0558 58.9836 74.0534 58.9819 74.053 58.9781C73.6342 57.4886 74.5528 55.8687 76.099 55.3682C77.6326 54.8727 79.3598 55.3458 79.7764 55.908C80.3835 56.726 81.2521 58.303 81.5766 59.3457C81.8846 60.332 81.8163 61.0343 81.3306 61.9357L81.3043 61.9827C80.871 62.7882 80.3349 63.7834 79.4455 63.8701ZM74.2638 58.9227C74.3054 59.0327 75.2934 61.653 75.8723 62.3173C76.4412 62.9709 78.3809 63.6764 79.3168 63.6817C80.1425 63.6881 80.6768 62.697 81.1067 61.9015L81.133 61.8545C81.6002 60.9896 81.6609 60.3461 81.3654 59.3972C81.047 58.3713 80.1897 56.8203 79.5925 56.0129C79.2217 55.5138 77.5852 55.088 76.1716 55.5466C74.728 56.0139 73.874 57.5271 74.2638 58.9227Z" fill="#263238"/>
    <path d="M77.6834 60.3089C77.6769 60.3095 77.6703 60.3101 77.6636 60.3089C77.6036 60.305 77.5596 60.261 77.5633 60.2085C77.5646 60.1987 77.5879 59.9626 77.8218 59.8046C78.0144 59.6757 78.2844 59.6397 78.6232 59.6974C78.6815 59.7072 78.7195 59.7576 78.7071 59.811C78.6944 59.8624 78.6339 59.8973 78.5756 59.8876C78.3018 59.8408 78.0922 59.8632 77.9535 59.956C77.8001 60.0579 77.7805 60.2182 77.7807 60.2201C77.7786 60.2667 77.7359 60.3037 77.6834 60.3089Z" fill="#263238"/>
    <path d="M78.1177 61.3888C77.5976 61.4395 77.1949 61.2914 77.1856 61.2865C77.1305 61.2648 77.1074 61.2091 77.1313 61.1604C77.1575 61.1114 77.2215 61.0897 77.2764 61.1095C77.336 61.1327 78.7588 61.6509 79.615 60.1143C79.6411 60.0654 79.7075 60.0454 79.7626 60.0671C79.8176 60.0888 79.8387 60.1466 79.8126 60.1955C79.3285 61.0678 78.6597 61.3359 78.1177 61.3888Z" fill="#263238"/>
    <path d="M76.0673 60.3832C75.8203 60.4073 75.6559 60.3499 75.6422 60.3455C75.5325 60.3059 75.4817 60.193 75.5294 60.0937C75.5773 59.9963 75.705 59.949 75.8146 59.9866C75.8398 59.9958 76.3004 60.1267 76.8505 59.5011C76.9261 59.4164 77.0632 59.3973 77.1577 59.4615C77.2522 59.5257 77.2705 59.6456 77.1949 59.7303C76.7742 60.2119 76.3623 60.3544 76.0673 60.3832Z" fill="#263238"/>
    <path d="M79.1725 59.1067C78.9474 59.1287 78.7319 59.113 78.5701 59.0824C78.4533 59.0609 78.3793 58.958 78.4087 58.8527C78.4361 58.7496 78.5553 58.6819 78.6723 58.7053C78.7106 58.7132 79.6219 58.8735 79.8094 58.2852C79.8412 58.1817 79.9631 58.1195 80.0803 58.1448C80.1975 58.1701 80.2652 58.2756 80.2334 58.3792C80.0748 58.8796 79.6074 59.0643 79.1725 59.1067Z" fill="#263238"/>
    <path d="M75.2795 59.4105C75.2227 59.416 75.1708 59.3824 75.1616 59.3331C75.1572 59.3104 75.0572 58.7598 75.4302 58.3775C75.657 58.1467 76.0008 58.0301 76.4557 58.034C76.5153 58.034 76.5636 58.0776 76.5623 58.1318C76.5608 58.1842 76.5121 58.2276 76.4481 58.228C76.0618 58.2251 75.7751 58.3168 75.5947 58.5025C75.2897 58.8144 75.3761 59.2929 75.3767 59.2986C75.3863 59.3518 75.347 59.402 75.2862 59.4118C75.286 59.4099 75.2817 59.4103 75.2795 59.4105Z" fill="#263238"/>
    <path d="M77.9092 57.6452C77.883 57.6477 77.856 57.6426 77.8325 57.6275C77.7852 57.5954 77.7751 57.5365 77.8127 57.4923C77.8187 57.4859 78.4609 56.7644 79.5392 57.2118C79.5943 57.2335 79.6154 57.2914 79.5892 57.3403C79.5631 57.3892 79.4967 57.4092 79.4416 57.3875C78.5219 57.0058 77.9909 57.6005 77.9849 57.6069C77.9651 57.6301 77.9376 57.6424 77.9092 57.6452Z" fill="#263238"/>
    <path d="M72.4208 60.4445C72.4208 60.4445 72.4026 61.909 72.5985 62.2666C72.7944 62.6243 74.3714 63.8868 74.67 64.1881C74.9685 64.4894 75.0254 64.5302 74.5788 65.4703C74.1322 66.4105 70.265 72.5881 70.2446 74.0528C70.2264 75.5173 70.4609 76.8141 72.1929 76.3631C73.9271 75.9119 74.5605 71.9335 75.0938 69.6652C75.6271 67.3969 76.149 64.469 76.0896 63.8603C76.0305 63.2536 73.6406 61.9583 73.3829 61.8037C73.1273 61.6489 72.9427 60.8651 72.9019 60.4459C72.8628 60.0227 72.5962 60.0487 72.4208 60.4445Z" fill="#FEDEA5"/>
    <path d="M71.7658 76.5375C71.3855 76.5746 71.0706 76.5126 70.8254 76.351C70.1984 75.9387 70.1248 74.9585 70.1378 74.0511C70.1529 72.9386 72.3058 69.2255 73.5918 67.0075C74.0242 66.26 74.3681 65.67 74.4796 65.4331C74.8952 64.5597 74.8611 64.5264 74.5991 64.2602C74.4939 64.1545 74.2579 63.9514 73.9834 63.7154C73.3861 63.2017 72.64 62.5634 72.5004 62.3085C72.2991 61.9417 72.3091 60.5959 72.312 60.4449C72.3131 60.4332 72.3141 60.4215 72.3196 60.4094C72.4319 60.1588 72.5888 60.0256 72.7491 60.0409C72.8361 60.0498 72.9856 60.1125 73.0166 60.4303C73.0658 60.9356 73.266 61.6078 73.4511 61.7192C73.477 61.736 73.5283 61.7638 73.5983 61.8034C75.3364 62.7951 76.1651 63.4427 76.2043 63.8447C76.2669 64.4859 75.7289 67.4521 75.2068 69.6768C75.14 69.9654 75.0692 70.2795 74.9978 70.6111C74.4954 72.9015 73.8062 76.0371 72.227 76.4481C72.0617 76.4951 71.9078 76.5236 71.7658 76.5375ZM72.5275 60.4606C72.524 60.8763 72.5447 61.9486 72.6949 62.2219C72.8184 62.4475 73.6106 63.1277 74.1353 63.5769C74.4243 63.8251 74.6506 64.0194 74.751 64.1217C75.0983 64.4704 75.1179 64.5805 74.6783 65.5026C74.563 65.7457 74.2172 66.3397 73.7831 67.0912C72.5067 69.2948 70.3688 72.9813 70.3538 74.0493C70.3445 74.8579 70.4019 75.8319 70.958 76.1951C71.2432 76.3817 71.6381 76.405 72.1654 76.2686C73.6133 75.8916 74.2848 72.8235 74.7768 70.5844C74.8502 70.2507 74.9187 69.9348 74.9876 69.646C75.5535 67.2374 76.0363 64.4291 75.9816 63.8683C75.9596 63.6425 75.5057 63.1283 73.471 61.9684C73.4008 61.927 73.3472 61.8974 73.3191 61.8808C73.0073 61.6929 72.8292 60.8388 72.7915 60.4522C72.7748 60.2819 72.7239 60.2347 72.7104 60.2321C72.6971 60.2315 72.6171 60.2702 72.5275 60.4606Z" fill="#263238"/>
    <path d="M75.0951 69.6628C75.1481 69.4373 75.2006 69.2061 75.2527 68.9711L72.9014 68.4102C71.6799 70.5446 70.2563 73.1625 70.2459 74.0504C70.2276 75.5148 70.4622 76.8117 72.1942 76.3606C73.9284 75.9094 74.562 71.9329 75.0951 69.6628Z" fill="#F26F1F"/>
    <path d="M71.7659 76.5376C71.3857 76.5747 71.0707 76.5127 70.8255 76.3511C70.1985 75.9389 70.125 74.9587 70.1379 74.0512C70.1509 73.1205 71.6666 70.3623 72.807 68.3691C72.8317 68.328 72.8846 68.3055 72.9366 68.3178L75.2877 68.8768C75.3418 68.8889 75.3751 68.9359 75.3645 68.9853C75.3124 69.2203 75.2601 69.4534 75.2071 69.6788C75.1404 69.9674 75.0695 70.2816 74.9982 70.6131C74.4957 72.9035 73.8065 76.0391 72.2273 76.4501C72.0618 76.4952 71.908 76.5238 71.7659 76.5376ZM72.9589 68.5243C71.834 70.4947 70.3674 73.169 70.3562 74.0492C70.3468 74.8578 70.4043 75.8318 70.9603 76.195C71.2455 76.3816 71.6405 76.4049 72.1677 76.2685C73.6157 75.8915 74.2871 72.8234 74.7791 70.5843C74.8525 70.2506 74.921 69.9347 74.9899 69.6459C75.0368 69.4481 75.0833 69.2465 75.1272 69.0412L72.9589 68.5243Z" fill="#263238"/>
    <path d="M72.0238 69.9778C72.0164 69.9921 72.0089 70.0063 72.0015 70.0206C71.9828 70.0552 71.964 70.088 71.9453 70.1226C71.9041 70.1982 71.8651 70.2735 71.8238 70.347C72.4188 70.4088 73.4434 70.5543 74.8233 70.8815C74.8525 70.7511 74.8799 70.6248 74.9075 70.5004C73.6224 70.1948 72.6439 70.0468 72.0238 69.9778Z" fill="#263238"/>
    <path d="M73.3256 75.4079C73.408 75.2801 73.4871 75.141 73.5632 74.9944C72.1058 75.1617 71.0035 75.0335 70.2726 74.869C70.2868 75.0145 70.307 75.1536 70.3332 75.2863C71.0511 75.4307 72.049 75.5286 73.3256 75.4079Z" fill="#263238"/>
    <path d="M70.854 72.2582C70.8375 72.2927 70.821 72.3271 70.8067 72.3614C70.7904 72.3978 70.772 72.4363 70.7557 72.4726C70.7286 72.5332 70.7054 72.5896 70.6802 72.6481C71.5485 72.6388 72.8733 72.7182 74.2669 73.1407C74.3033 73.0155 74.3394 72.8883 74.3733 72.7613C73.0209 72.3541 71.7453 72.2582 70.854 72.2582Z" fill="#263238"/>
    <path d="M82.0122 56.1835C82.0122 56.1835 83.4533 56.8892 83.7058 57.2163C83.9585 57.5452 84.4162 59.3884 84.5636 59.7682C84.7109 60.148 84.7239 60.2124 85.8626 60.3293C87.0012 60.4444 94.9426 60.4814 96.3815 61.1874C97.8226 61.8931 98.9746 62.7121 97.6811 63.8353C96.3875 64.9585 92.1877 63.4958 89.7078 62.7928C87.2278 62.0898 84.1091 61.0568 83.5437 60.712C82.9784 60.3672 82.8877 57.8757 82.8632 57.6018C82.8386 57.3279 82.1627 56.7987 81.771 56.5606C81.3837 56.3221 81.5412 56.127 82.0122 56.1835Z" fill="#FEDEA5"/>
    <path d="M96.6089 64.3162C95.0398 64.4692 92.5954 63.7454 90.6916 63.1813C90.3305 63.0755 89.9896 62.9735 89.6743 62.8844C87.2421 62.1961 84.0783 61.154 83.4825 60.7909C83.1095 60.5626 82.8812 59.6014 82.7683 57.7652C82.7634 57.6922 82.7603 57.6384 82.7575 57.6097C82.7403 57.4104 82.181 56.924 81.7118 56.6374C81.4163 56.4575 81.4283 56.3095 81.4611 56.2387C81.5231 56.1051 81.7317 56.05 82.0309 56.0865C82.0444 56.089 82.0579 56.0916 82.0696 56.0982C82.22 56.1705 83.5391 56.8244 83.7991 57.1603C83.9809 57.3957 84.2377 58.2865 84.4465 59.0024C84.5423 59.3292 84.623 59.6131 84.6701 59.7341C84.8055 60.0822 84.8207 60.1252 85.8791 60.2326C86.1665 60.2606 86.9125 60.2864 87.8554 60.3181C90.6552 60.4102 95.343 60.5655 96.4388 61.1021C97.3286 61.5389 98.2525 62.0768 98.3485 62.7669C98.4 63.1367 98.2013 63.5194 97.7599 63.9025C97.4832 64.142 97.0875 64.2695 96.6089 64.3162ZM81.7844 56.2728C81.6991 56.2812 81.666 56.3037 81.6622 56.3099C81.6588 56.3199 81.6804 56.3835 81.8377 56.4802C82.1965 56.6983 82.9438 57.2573 82.9741 57.5905C82.9769 57.6192 82.9801 57.675 82.9852 57.7498C83.1198 59.8988 83.3993 60.5034 83.6082 60.6318C84.129 60.9501 87.1106 61.9558 89.7445 62.6998C90.0598 62.7889 90.4029 62.8907 90.7642 62.9984C93.195 63.7178 96.5253 64.703 97.6055 63.7668C98.0001 63.425 98.1699 63.107 98.1283 62.7942C98.0446 62.184 97.122 61.6596 96.3274 61.2714C95.2779 60.7574 90.6232 60.6027 87.8411 60.5108C86.8916 60.4797 86.1434 60.4541 85.8472 60.4251C84.7286 60.3119 84.6314 60.2422 84.4663 59.8158C84.4105 59.6744 84.3332 59.4018 84.2311 59.0562C84.0486 58.4287 83.7751 57.4796 83.6138 57.2731C83.4194 57.0215 82.3823 56.4773 81.9746 56.2775C81.8942 56.2679 81.8325 56.2682 81.7844 56.2728Z" fill="#263238"/>
    <path d="M89.7093 62.7923C89.4644 62.7235 89.2101 62.6497 88.9556 62.5741L89.5649 60.4742C92.251 60.5774 95.5119 60.7598 96.3831 61.1869C97.8241 61.8927 98.9762 62.7116 97.6826 63.8348C96.3891 64.958 92.1893 63.4953 89.7093 62.7923Z" fill="#F26F1F"/>
    <path d="M96.6089 64.3163C95.0398 64.4693 92.5954 63.7455 90.6916 63.1815C90.3305 63.0756 89.9896 62.9736 89.6743 62.8846C89.4269 62.814 89.175 62.742 88.9184 62.6665C88.8661 62.6504 88.8348 62.6013 88.85 62.5534L89.4593 60.4536C89.4725 60.4078 89.5179 60.3763 89.5733 60.3787C92.0822 60.4741 95.5238 60.6543 96.4411 61.102C97.3308 61.5389 98.2547 62.0767 98.3507 62.7668C98.4022 63.1366 98.2035 63.5193 97.7621 63.9024C97.4832 64.1421 97.0854 64.2698 96.6089 64.3163ZM89.7447 62.7019C90.0601 62.7909 90.4031 62.8927 90.7644 63.0005C93.1952 63.7198 96.5255 64.7051 97.6057 63.7689C98.0003 63.427 98.1701 63.109 98.1286 62.7962C98.0448 62.1861 97.1222 61.6616 96.3276 61.2734C95.4612 60.8498 92.1258 60.6727 89.6477 60.5762L89.0865 62.5129C89.3089 62.5763 89.5291 62.6398 89.7447 62.7019Z" fill="#263238"/>
    <path d="M93.5015 63.8557C93.6438 63.8902 93.7836 63.921 93.9234 63.9518L94.965 60.8552C94.8709 60.8412 94.7749 60.8293 94.6745 60.8179C94.6545 60.816 94.6321 60.8124 94.612 60.8104C94.5852 60.8073 94.5563 60.8043 94.5295 60.8011L93.5015 63.8557Z" fill="#263238"/>
    <path d="M92.3514 60.6119C92.3137 60.6098 92.2738 60.6079 92.2359 60.6038C92.1339 60.5983 92.0317 60.5909 91.9297 60.5854L91.0219 63.1762C91.1285 63.2063 91.2353 63.2384 91.3422 63.2705C91.3717 63.2792 91.4034 63.2877 91.4353 63.2981L92.3758 60.6134C92.3671 60.6142 92.3603 60.613 92.3514 60.6119Z" fill="#263238"/>
    <path d="M97.1112 61.5757C96.8731 62.1882 96.4343 63.2995 96.0167 64.2426C96.1803 64.246 96.3389 64.244 96.4879 64.2334C96.8651 63.3735 97.2458 62.4127 97.4784 61.8123C97.3646 61.7307 97.24 61.652 97.1112 61.5757Z" fill="#263238"/>
    <path d="M115.046 93.7198C115.502 93.8686 115.904 94.2158 115.904 94.2158C115.904 94.2158 115.753 94.7001 114.653 95.615C115.502 96.2201 116.27 96.8563 116.564 96.7948C117.141 96.6747 118.519 94.2216 118.966 93.5327C119.413 92.8457 120.261 92.3534 120.301 91.2558C120.342 90.1562 119.606 90.1643 119.346 90.5122C119.087 90.8602 117.403 92.0794 116.482 92.4282C115.561 92.775 114.838 93.0987 114.838 93.0987C114.838 93.0987 114.59 93.5711 115.046 93.7198Z" fill="#F37630"/>
    <path d="M116.551 96.8921C116.275 96.9189 115.83 96.603 115.086 96.0591C114.922 95.9399 114.751 95.8136 114.578 95.6894C114.554 95.6724 114.538 95.6469 114.538 95.6199C114.538 95.5929 114.55 95.5646 114.573 95.545C115.428 94.8336 115.697 94.388 115.769 94.2438C115.65 94.1492 115.339 93.9207 115.001 93.8106C114.851 93.7615 114.75 93.6786 114.697 93.562C114.593 93.3345 114.728 93.0682 114.736 93.0578C114.747 93.0373 114.765 93.0201 114.789 93.0101C114.795 93.0076 115.524 92.6814 116.439 92.3371C117.352 91.993 119.006 90.7883 119.254 90.4588C119.403 90.2608 119.669 90.1652 119.905 90.2254C120.068 90.2674 120.441 90.4513 120.411 91.2561C120.381 92.0589 119.947 92.5418 119.527 93.0059C119.354 93.1986 119.191 93.3788 119.06 93.5789C118.976 93.7089 118.856 93.9042 118.715 94.1343C117.865 95.5292 117.061 96.7882 116.585 96.8867C116.574 96.8878 116.562 96.891 116.551 96.8921ZM114.815 95.6064C114.957 95.7085 115.095 95.8109 115.23 95.9098C115.758 96.2989 116.357 96.7371 116.538 96.7C116.956 96.613 118.013 94.879 118.521 94.0469C118.664 93.8147 118.784 93.6175 118.868 93.4875C119.006 93.2751 119.184 93.08 119.353 92.8915C119.751 92.4508 120.161 91.9954 120.188 91.2565C120.204 90.7893 120.072 90.4737 119.835 90.4119C119.694 90.3753 119.528 90.4379 119.435 90.563C119.169 90.9173 117.485 92.152 116.521 92.5146C115.731 92.8119 115.084 93.0934 114.923 93.1651C114.898 93.2274 114.851 93.3731 114.904 93.4878C114.934 93.5543 114.994 93.6007 115.085 93.6304C115.557 93.7854 115.964 94.1321 115.981 94.1479C116.01 94.1721 116.02 94.2078 116.007 94.2399C116 94.258 115.844 94.7332 114.815 95.6064Z" fill="#263238"/>
    <path d="M120.021 90.3925C119.961 91.7219 119.528 92.1931 117.944 94.0092C116.708 95.4263 116.261 96.2718 116.098 96.6818C116.299 96.7724 116.46 96.8147 116.561 96.7951C117.139 96.675 118.517 94.222 118.964 93.533C119.411 92.846 120.258 92.3537 120.299 91.2561C120.317 90.7829 120.192 90.5169 120.021 90.3925Z" fill="white"/>
    <path d="M116.544 96.893C116.424 96.9047 116.263 96.8643 116.047 96.7676C115.998 96.7472 115.976 96.6972 115.996 96.6528C116.183 96.1804 116.659 95.3283 117.859 93.9514L117.95 93.8478C119.453 92.1266 119.855 91.6641 119.912 90.3911C119.913 90.3543 119.94 90.3207 119.979 90.3053C120.017 90.29 120.062 90.2953 120.095 90.3191C120.249 90.4335 120.431 90.6902 120.411 91.2563C120.381 92.0592 119.948 92.542 119.527 93.0062C119.354 93.1989 119.191 93.379 119.06 93.5792C118.976 93.7092 118.856 93.9044 118.715 94.1346C117.865 95.5295 117.061 96.7884 116.586 96.887C116.573 96.8902 116.559 96.8915 116.544 96.893ZM116.236 96.6312C116.431 96.7088 116.513 96.7067 116.539 96.7003C116.956 96.6132 118.013 94.8793 118.521 94.0472C118.664 93.8149 118.784 93.6178 118.868 93.4878C119.006 93.2753 119.184 93.0802 119.353 92.8918C119.751 92.451 120.161 91.9956 120.188 91.2568C120.198 90.9931 120.16 90.8112 120.109 90.6888C119.994 91.8187 119.504 92.3805 118.121 93.9646L118.029 94.0681C116.868 95.3987 116.413 96.2218 116.236 96.6312Z" fill="#263238"/>
    <path d="M86.0387 82.2264C86.0059 82.2296 85.9696 82.2197 85.9474 82.1948C85.9083 82.1561 85.9132 82.0938 85.9583 82.0585C85.9583 82.0585 86.1818 81.884 86.5511 81.5987C86.5962 81.5634 86.667 81.5662 86.7063 81.6068C86.7454 81.6455 86.7404 81.7078 86.6931 81.7433C86.3237 82.0267 86.1026 82.2028 86.1026 82.2028C86.0818 82.2164 86.0605 82.2243 86.0387 82.2264Z" fill="white"/>
    <path d="M85.2525 82.6493C85.2525 82.6493 91.9914 77.0978 97.4269 74.763C102.863 72.4301 104.873 73.4571 104.679 75.2151C104.482 76.9733 102.475 82.7724 100.807 86.0267C99.1385 89.2809 96.2798 94.6473 96.2798 94.6473C96.2798 94.6473 99.8652 98.2258 100.2 98.6453C100.534 99.0629 98.429 99.3339 97.5112 98.9713C96.7815 98.6831 96.8017 98.7545 95.2138 98.036C92.5226 96.8184 92.3202 96.2585 92.6331 95.712C93.6383 93.962 94.9101 92.4564 95.2814 90.4281C95.9546 86.7434 97.3986 81.915 97.6603 82.4034C97.6603 82.4034 95.3339 84.949 91.5865 86.4738C87.837 87.9988 85.2926 87.9474 83.3844 86.1163" fill="#73B4EA"/>
    <path d="M99.2177 99.2087C98.6036 99.2686 97.8847 99.2266 97.4604 99.0613C97.2471 98.9777 97.0985 98.9246 96.9545 98.8729C96.6094 98.7501 96.2825 98.6332 95.1585 98.1245C92.4812 96.9133 92.1685 96.3081 92.5324 95.6736C92.7887 95.2254 93.066 94.7888 93.3361 94.3682C94.1395 93.1054 94.897 91.9147 95.1704 90.4196C95.5909 88.1256 96.4785 84.6499 97.1027 83.0877C96.1606 83.9467 94.2258 85.5073 91.6263 86.5646C87.7729 88.1326 85.2044 88.014 83.2963 86.1848C83.2551 86.1463 83.2602 86.0859 83.3051 86.0487C83.35 86.0115 83.4209 86.0142 83.4599 86.0529C85.2928 87.8122 87.7849 87.9169 91.5365 86.3898C94.5243 85.1748 96.6192 83.2875 97.316 82.6051C97.4201 82.4056 97.5123 82.2884 97.5886 82.279C97.6149 82.2765 97.7025 82.2699 97.7537 82.3653C97.7723 82.3983 97.7651 82.4376 97.7394 82.4672C97.7354 82.4715 97.6396 82.5755 97.4602 82.7495C96.9863 83.7715 95.9623 87.274 95.3827 90.4472C95.1037 91.9757 94.3346 93.183 93.5237 94.4601C93.2559 94.8804 92.9806 95.3149 92.726 95.759C92.4848 96.1806 92.48 96.697 95.261 97.9541C96.3759 98.4598 96.6981 98.5733 97.0388 98.6966C97.185 98.7481 97.336 98.8029 97.5538 98.8879C98.3178 99.1883 99.8619 99.028 100.104 98.7725C100.126 98.7491 100.129 98.7353 100.106 98.7066C99.7797 98.2979 96.2306 94.7526 96.194 94.7175C96.1648 94.6894 96.1587 94.6494 96.1774 94.6148C96.2053 94.5618 99.0546 89.2118 100.704 85.9942C102.391 82.7033 104.373 76.9472 104.568 75.2123C104.638 74.593 104.419 74.112 103.939 73.8246C103.306 73.4438 101.624 73.0726 97.4711 74.8534C92.1138 77.1535 85.3932 82.6666 85.3258 82.7214C85.2808 82.7587 85.2124 82.7576 85.1711 82.7191C85.1298 82.6807 85.1328 82.6205 85.1777 82.5832C85.2452 82.5284 91.9923 76.9934 97.3793 74.6807C100.53 73.3281 102.904 72.9671 104.064 73.6636C104.612 73.9927 104.861 74.5326 104.786 75.2259C104.59 76.9743 102.597 82.7624 100.903 86.0675C99.3465 89.1061 96.7176 94.0462 96.4064 94.633C96.8463 95.0712 99.9684 98.1964 100.287 98.5924C100.365 98.691 100.36 98.7997 100.272 98.8933C100.118 99.0513 99.7007 99.1616 99.2177 99.2087Z" fill="#73B4EA"/>
    <path d="M87.5229 81.0883C87.488 81.0917 87.4537 81.0796 87.4294 81.0568C87.3901 81.0162 87.3975 80.9556 87.4426 80.9203C88.8218 79.8835 90.7646 78.4728 92.1953 77.6473C92.2454 77.6173 92.315 77.6299 92.3457 77.6733C92.3788 77.7183 92.3625 77.7779 92.3123 77.806C90.8921 78.6265 88.9575 80.0306 87.5824 81.0651C87.5661 81.0783 87.5448 81.0862 87.5229 81.0883Z" fill="white"/>
    <path d="M95.2253 84.4223C95.1947 84.4253 95.163 84.4168 95.1389 84.3959C95.0956 84.3596 95.0962 84.2977 95.1387 84.2588L96.877 82.6961C96.9592 82.3171 97.8455 78.5111 100.419 76.3241C100.463 76.2869 100.532 76.286 100.573 76.3245C100.614 76.363 100.614 76.4229 100.569 76.4602C97.9263 78.7061 97.0949 82.7135 97.0877 82.7528C97.083 82.7726 97.0738 82.7909 97.0574 82.8041L95.297 84.3882C95.2748 84.4097 95.2515 84.4197 95.2253 84.4223Z" fill="white"/>
    <path d="M102.488 82.3883C102.475 82.3896 102.46 82.3892 102.446 82.3847C102.387 82.3711 102.356 82.3182 102.373 82.2663L102.687 81.3526C102.704 81.3007 102.765 81.2715 102.824 81.2851C102.883 81.2987 102.914 81.3517 102.897 81.4036L102.583 82.3173C102.571 82.3571 102.532 82.3841 102.488 82.3883Z" fill="white"/>
    <path d="M103.08 80.6707C103.067 80.672 103.051 80.6716 103.037 80.6671C102.979 80.6535 102.947 80.6006 102.964 80.5487L104.102 77.2399C104.119 77.188 104.18 77.1588 104.239 77.1724C104.297 77.186 104.329 77.239 104.312 77.2909L103.174 80.5997C103.161 80.6396 103.123 80.6664 103.08 80.6707Z" fill="white"/>
    <path d="M97.5069 98.9736C98.4245 99.3343 100.532 99.065 100.195 98.6476C99.8612 98.23 96.2755 94.6496 96.2755 94.6496C96.2755 94.6496 97.0327 93.229 97.9954 91.4058C96.5726 91.3842 95.7305 90.9388 95.2559 90.5291C94.862 92.5074 93.6192 93.9928 92.6289 95.7144C92.3159 96.2608 92.5184 96.8207 95.2095 98.0383C96.7974 98.7568 96.7772 98.6854 97.5069 98.9736Z" fill="#FEDEA5"/>
    <path d="M99.2177 99.2085C98.6037 99.2684 97.8848 99.2265 97.4605 99.0611C97.2472 98.9776 97.0986 98.9244 96.9546 98.8728C96.6095 98.7499 96.2826 98.633 95.1586 98.1243C92.4813 96.9131 92.1685 96.3079 92.5324 95.6734C92.789 95.2272 93.0643 94.7926 93.3321 94.3723C94.1183 93.1363 94.8604 91.9684 95.149 90.5162C95.1566 90.4807 95.1845 90.4509 95.2253 90.4392C95.2639 90.4277 95.3065 90.4351 95.3356 90.4613C95.7716 90.838 96.5878 91.2898 98.0018 91.3103C98.0393 91.3105 98.0718 91.3267 98.0899 91.3539C98.108 91.3811 98.1113 91.4156 98.0943 91.4443C97.2452 93.0536 96.5552 94.3478 96.4063 94.6309C96.8461 95.0691 99.9682 98.1943 100.287 98.5903C100.365 98.6889 100.36 98.7976 100.272 98.8912C100.118 99.0512 99.7007 99.1614 99.2177 99.2085ZM95.3276 90.719C95.01 92.1219 94.2871 93.2609 93.524 94.4618C93.2581 94.88 92.9828 95.3145 92.7281 95.7567C92.4868 96.1783 92.482 96.6947 95.2631 97.9518C96.378 98.4575 96.7001 98.571 97.0409 98.6943C97.1871 98.7458 97.338 98.8006 97.5559 98.8856C98.3198 99.186 99.864 99.0257 100.106 98.7702C100.128 98.7468 100.131 98.733 100.108 98.7043C99.7817 98.2956 96.2326 94.7503 96.1961 94.7152C96.1669 94.6871 96.1608 94.6471 96.1795 94.6125C96.1795 94.6125 96.9013 93.2591 97.8283 91.4992C96.5835 91.4487 95.7968 91.0732 95.3276 90.719Z" fill="#263238"/>
    <path d="M96.2759 94.6497C96.2759 94.6497 95.9665 94.4866 95.6514 95.0333C95.3363 95.5799 95.1674 96.1103 95.1674 96.1103L93.3142 94.5946C93.0808 94.9613 92.8478 95.3318 92.6292 95.7145C92.3163 96.2609 92.5187 96.8208 95.2099 98.0384C96.7978 98.7569 96.7776 98.6855 97.5072 98.9737C98.4249 99.3344 100.532 99.0651 100.196 98.6477C99.8613 98.2282 96.2759 94.6497 96.2759 94.6497Z" fill="#F37630"/>
    <path d="M99.218 99.2086C98.6039 99.2685 97.885 99.2266 97.4607 99.0612C97.2474 98.9777 97.0988 98.9245 96.9548 98.8729C96.6097 98.75 96.2828 98.6331 95.1588 98.1244C92.4815 96.9132 92.1687 96.308 92.5327 95.6735C92.7609 95.2764 93.0073 94.8853 93.2195 94.5496C93.2367 94.5228 93.2658 94.5045 93.2984 94.4994C93.3332 94.4941 93.3649 94.5026 93.3912 94.5232L95.1172 95.9335C95.1905 95.7351 95.3377 95.3671 95.5547 94.9904C95.6962 94.7447 95.8603 94.5954 96.0431 94.5467C96.2066 94.5037 96.3224 94.56 96.334 94.5666C96.3433 94.5715 96.3528 94.5783 96.3601 94.5853C96.5067 94.7314 99.9531 98.1728 100.287 98.5904C100.365 98.689 100.36 98.7977 100.272 98.8913C100.118 99.0513 99.7009 99.1615 99.218 99.2086ZM93.3403 94.7484C93.1454 95.0573 92.9277 95.4031 92.7259 95.7551C92.4847 96.1767 92.4799 96.6931 95.2609 97.9502C96.3758 98.4559 96.698 98.5694 97.0387 98.6927C97.1849 98.7442 97.3359 98.799 97.5537 98.884C98.3177 99.1844 99.8618 99.0241 100.104 98.7686C100.126 98.7452 100.129 98.7314 100.106 98.7027C99.7896 98.3066 96.4653 94.9847 96.2085 94.7276C96.1903 94.7217 96.1479 94.7161 96.0942 94.731C96.0126 94.7545 95.8856 94.8325 95.7479 95.072C95.4423 95.6023 95.275 96.1268 95.2732 96.1308C95.2631 96.1627 95.2325 96.1889 95.1961 96.2002C95.1595 96.2095 95.1191 96.2019 95.0904 96.1796L93.3403 94.7484Z" fill="#F37630"/>
    <path d="M95.2108 98.0387C96.7987 98.7572 96.7785 98.6857 97.5082 98.9739C98.3341 99.2992 100.121 99.1133 100.228 98.7686C96.8959 98.939 93.921 96.8931 92.5859 95.804C92.3452 96.3222 92.665 96.8861 95.2108 98.0387Z" fill="white"/>
    <path d="M99.1989 99.2142C98.6023 99.2723 97.9016 99.2363 97.4609 99.061C97.2476 98.9774 97.099 98.9243 96.955 98.8727C96.6099 98.7498 96.283 98.6329 95.159 98.1242C92.5692 96.9508 92.2153 96.3535 92.4826 95.769C92.4973 95.7386 92.526 95.7165 92.5606 95.7093C92.5974 95.7018 92.6335 95.7099 92.66 95.7324C94.0932 96.9007 96.9802 98.8374 100.223 98.6718C100.258 98.6703 100.29 98.6827 100.312 98.7056C100.334 98.7286 100.342 98.7607 100.331 98.7907C100.303 98.8824 100.209 98.963 100.054 99.0283C99.8489 99.116 99.5398 99.1809 99.1989 99.2142ZM92.6376 95.9781C92.5589 96.3471 92.8725 96.871 95.2635 97.9517C96.3784 98.4574 96.7005 98.5709 97.0413 98.6942C97.1875 98.7456 97.3384 98.8005 97.5563 98.8855C98.1666 99.1255 99.3756 99.081 99.9201 98.8733C96.8174 98.9093 94.0852 97.1353 92.6376 95.9781Z" fill="#263238"/>
    </svg>
    